<?xml version="1.0" encoding="UTF-8" standalone="no"?>
<!-- Created with Inkscape (http://www.inkscape.org/) -->

<svg
   xmlns:dc="http://purl.org/dc/elements/1.1/"
   xmlns:cc="http://creativecommons.org/ns#"
   xmlns:rdf="http://www.w3.org/1999/02/22-rdf-syntax-ns#"
   xmlns:svg="http://www.w3.org/2000/svg"
   xmlns="http://www.w3.org/2000/svg"
   xmlns:sodipodi="http://sodipodi.sourceforge.net/DTD/sodipodi-0.dtd"
   xmlns:inkscape="http://www.inkscape.org/namespaces/inkscape"
   width="139.47903mm"
   height="193.429mm"
   viewBox="0 0 139.47903 193.429"
   version="1.1"
   id="svg930"
   inkscape:version="0.92.3 (2405546, 2018-03-11)"
   sodipodi:docname="completo.svg">
  <defs
     id="defs924" />
  <sodipodi:namedview
     id="base"
     pagecolor="#ffffff"
     bordercolor="#666666"
     borderopacity="1.0"
     inkscape:pageopacity="0.0"
     inkscape:pageshadow="2"
     inkscape:zoom="0.35"
     inkscape:cx="277.86815"
     inkscape:cy="731.2494"
     inkscape:document-units="mm"
     inkscape:current-layer="layer1"
     showgrid="false"
     inkscape:window-width="1920"
     inkscape:window-height="1017"
     inkscape:window-x="-8"
     inkscape:window-y="-8"
     inkscape:window-maximized="1" />
  <metadata
     id="metadata927">
    <rdf:RDF>
      <cc:Work
         rdf:about="">
        <dc:format>image/svg+xml</dc:format>
        <dc:type
           rdf:resource="http://purl.org/dc/dcmitype/StillImage" />
        <dc:title></dc:title>
      </cc:Work>
    </rdf:RDF>
  </metadata>
  <g
     inkscape:label="Camada 1"
     inkscape:groupmode="layer"
     id="layer1"
     transform="translate(99.977615,-148.88073)">
    <g
       transform="translate(-137.66254,131.04907)"
       id="g889">
      <g
         id="g847">
        <path
           style="opacity:1;fill:#e9ddaf;fill-opacity:1;fill-rule:nonzero;stroke:none;stroke-width:0.66499996;stroke-linecap:butt;stroke-linejoin:miter;stroke-miterlimit:4;stroke-dasharray:none;stroke-dashoffset:0;stroke-opacity:1;paint-order:stroke fill markers"
           d="M 37.685007,40.688518 C 37.598628,29.983385 106.11609,-4.2990395 149.13641,39.61944 c 28.13425,26.198131 -18.44702,109.0308 9.08716,151.27455 1.41511,2.1711 4.61235,3.42618 8.77607,3.96829 C 154.91039,210.52344 65.713047,223.81754 48.108519,190.89399 24.056162,145.91187 78.249412,36.991048 37.685007,40.688518 Z"
           id="rect815"
           inkscape:connector-curvature="0"
           sodipodi:nodetypes="ccscsc" />
        <path
           inkscape:connector-curvature="0"
           style="fill:#000000;fill-opacity:0.19607843;stroke:none;stroke-width:0.99999994px;stroke-linecap:butt;stroke-linejoin:miter;stroke-opacity:1"
           d="M 363.18359,67.398438 C 245.85128,66.89114 142.22505,128.17939 142.43164,153.7832 c 153.31429,-13.97469 -51.510061,397.69392 39.39648,567.70508 66.5368,124.43547 403.65991,74.19179 449.35157,15 0,0 -143.32285,44.60299 -254.03711,3.88867 -80.62572,-29.64948 -141.2923,-62.77413 -160.71485,-128.57226 -27.58067,-93.43567 -34.65195,-157.59828 -12.14257,-297.85547 2.55148,-15.89841 13.52096,-131.38855 52.85742,-180 22.91843,-28.32229 80.37611,-53.448925 114.13086,-66.414064 -2.70292,-0.07775 -5.40025,-0.12509 -8.08985,-0.136718 z"
           transform="scale(0.26458333)"
           id="path827" />
        <path
           style="fill:#000000;fill-opacity:0.19607843;stroke:none;stroke-width:0.26458332px;stroke-linecap:butt;stroke-linejoin:miter;stroke-opacity:1"
           d="m 65.189745,42.692822 28.564818,-4.587274 c 1.324235,-0.212662 26.390997,-4.21814 28.857947,-3.82006 1.94789,0.314323 24.1039,3.221846 24.1039,3.221846 0,0 -15.49422,-1.964984 -22.7375,-1.779847 -15.26047,0.390055 -30.215433,4.447128 -45.401943,5.99769 -4.45091,0.454444 -13.387222,0.967645 -13.387222,0.967645 z"
           id="path834"
           inkscape:connector-curvature="0"
           sodipodi:nodetypes="csscssc" />
        <path
           sodipodi:nodetypes="csscssc"
           inkscape:connector-curvature="0"
           id="path836"
           d="m 73.127245,189.22793 28.564815,4.58727 c 1.32424,0.21266 26.391,4.21814 28.85795,3.82006 1.94789,-0.31432 24.1039,-3.22184 24.1039,-3.22184 0,0 -15.49422,1.96498 -22.7375,1.77984 -15.26047,-0.39005 -30.21543,-4.44713 -45.401943,-5.99769 -4.45091,-0.45444 -13.387222,-0.96764 -13.387222,-0.96764 z"
           style="fill:#000000;fill-opacity:0.19607843;stroke:none;stroke-width:0.26458332px;stroke-linecap:butt;stroke-linejoin:miter;stroke-opacity:1" />
      </g>
      <path
         inkscape:connector-curvature="0"
         id="rect838"
         d="m 74.588293,114.04954 c -0.139533,0.13953 -0.139533,0.36412 0,0.50366 l 31.796787,31.79678 9.87659,9.87659 0.11002,0.11002 c 0.13954,0.13954 0.36412,0.13954 0.50365,0 l 0.11002,-0.11002 9.98645,-9.98645 50.04181,-50.041796 c 0.20046,-0.20047 0.20046,-0.52323 0,-0.7237 l -9.87659,-9.876582 c -0.20046,-0.200467 -0.52323,-0.200467 -0.72369,0 L 116.62336,135.38801 85.188412,103.95307 c -0.139533,-0.13953 -0.364116,-0.13953 -0.503649,0 z"
         style="opacity:1;fill:#008080;fill-opacity:1;fill-rule:nonzero;stroke:none;stroke-width:0.28359964;stroke-linecap:butt;stroke-linejoin:miter;stroke-miterlimit:4;stroke-dasharray:none;stroke-dashoffset:0;stroke-opacity:1;paint-order:stroke fill markers" />
    </g>
  </g>
</svg>
