<?xml version="1.0" encoding="UTF-8" standalone="no"?>
<!-- Created with Inkscape (http://www.inkscape.org/) -->

<svg
   xmlns:dc="http://purl.org/dc/elements/1.1/"
   xmlns:cc="http://creativecommons.org/ns#"
   xmlns:rdf="http://www.w3.org/1999/02/22-rdf-syntax-ns#"
   xmlns:svg="http://www.w3.org/2000/svg"
   xmlns="http://www.w3.org/2000/svg"
   xmlns:sodipodi="http://sodipodi.sourceforge.net/DTD/sodipodi-0.dtd"
   xmlns:inkscape="http://www.inkscape.org/namespaces/inkscape"
   width="139.25734mm"
   height="190.2043mm"
   viewBox="0 0 139.25734 190.2043"
   version="1.1"
   id="svg8"
   inkscape:version="0.92.3 (2405546, 2018-03-11)"
   sodipodi:docname="comunicacao.svg">
  <defs
     id="defs2" />
  <sodipodi:namedview
     id="base"
     pagecolor="#ffffff"
     bordercolor="#666666"
     borderopacity="1.0"
     inkscape:pageopacity="0.0"
     inkscape:pageshadow="2"
     inkscape:zoom="0.49497475"
     inkscape:cx="591.10777"
     inkscape:cy="364.23439"
     inkscape:document-units="mm"
     inkscape:current-layer="layer1"
     showgrid="false"
     inkscape:window-width="1920"
     inkscape:window-height="1017"
     inkscape:window-x="-8"
     inkscape:window-y="-8"
     inkscape:window-maximized="1" />
  <metadata
     id="metadata5">
    <rdf:RDF>
      <cc:Work
         rdf:about="">
        <dc:format>image/svg+xml</dc:format>
        <dc:type
           rdf:resource="http://purl.org/dc/dcmitype/StillImage" />
        <dc:title></dc:title>
      </cc:Work>
    </rdf:RDF>
  </metadata>
  <g
     inkscape:label="Camada 1"
     inkscape:groupmode="layer"
     id="layer1"
     transform="translate(15.340666,-121.99059)">
    <g
       id="g861">
      <path
         id="path817"
         transform="scale(0.26458333)"
         d="m -20.269531,461.07812 c -1.375015,-0.0188 -2.714202,-0.0142 -4.015625,0.0137 -11.001198,0.23577 -22.293448,0.46615 -33.695313,0.83398 v 714.8672 c 0,1.5165 1.060766,2.772 2.482422,3.08 0.04184,0.01 0.08315,0.015 0.125,0.022 0.179233,0.031 0.362292,0.055 0.550781,0.055 H 93.816406 c 16.701274,-1.9347 27.662204,-3.8828 29.041014,-4.5722 5.71429,-2.8571 174.28516,-30 174.28516,-30 l -60,-154.2852 L 91.427734,986.80469 198.57227,911.0918 200,858.23438 264.28516,815.37695 158.57227,693.94922 l -60.000004,-210 c 0,0 -76.216342,-22.28948 -118.841797,-22.8711 z"
         style="fill:#008080;stroke:none;stroke-width:0.99999994px;stroke-linecap:butt;stroke-linejoin:miter;stroke-opacity:1"
         inkscape:connector-curvature="0" />
      <g
         transform="matrix(0.49561716,0.18725219,-0.18725219,0.49561716,-41.546647,65.399907)"
         style="fill:#008080;fill-opacity:1"
         id="g854">
        <path
           inkscape:connector-curvature="0"
           style="opacity:1;fill:#008080;fill-opacity:1;fill-rule:nonzero;stroke:none;stroke-width:1.19850981;stroke-linecap:butt;stroke-linejoin:miter;stroke-miterlimit:4;stroke-dasharray:none;stroke-dashoffset:0;stroke-opacity:1;paint-order:stroke fill markers"
           d="m 1171.7461,873.94922 a 106.61019,106.61019 0 0 0 -51.0273,13.10156 l -8.3653,17.67578 a 106.61019,106.61019 0 0 1 31.4629,-4.89258 106.61019,106.61019 0 0 1 106.6113,106.61132 106.61019,106.61019 0 0 1 -0.6308,11.1426 l 24.8808,-9.8125 a 106.61019,106.61019 0 0 0 3.6797,-27.21681 106.61019,106.61019 0 0 0 -106.6113,-106.60937 z"
           transform="scale(0.26458333)"
           id="path824" />
        <path
           inkscape:connector-curvature="0"
           style="opacity:1;fill:#008080;fill-opacity:1;fill-rule:nonzero;stroke:none;stroke-width:2.05187297;stroke-linecap:butt;stroke-linejoin:miter;stroke-miterlimit:4;stroke-dasharray:none;stroke-dashoffset:0;stroke-opacity:1;paint-order:stroke fill markers"
           d="m 1226.5547,733.94922 a 182.51881,182.51881 0 0 0 -35.0508,3.50976 l -19.4141,41.0254 a 182.51881,182.51881 0 0 1 6.6465,-0.21876 182.51881,182.51881 0 0 1 182.5196,182.51954 182.51881,182.51881 0 0 1 -0.6836,13.11914 l 43.8965,-17.3125 a 182.51881,182.51881 0 0 0 4.6054,-40.125 182.51881,182.51881 0 0 0 -182.5195,-182.51758 z"
           transform="scale(0.26458333)"
           id="path829" />
        <path
           inkscape:connector-curvature="0"
           style="opacity:1;fill:#008080;fill-opacity:1;fill-rule:nonzero;stroke:none;stroke-width:2.63268566;stroke-linecap:butt;stroke-linejoin:miter;stroke-miterlimit:4;stroke-dasharray:none;stroke-dashoffset:0;stroke-opacity:1;paint-order:stroke fill markers"
           d="m 1327.7461,602.94727 a 234.18344,234.18344 0 0 0 -79.3574,14.29687 l -21.7949,46.05859 a 234.18344,234.18344 0 0 1 39.8007,-3.49218 234.18344,234.18344 0 0 1 234.1836,234.18359 234.18344,234.18344 0 0 1 -1.5117,25.29297 l 54.5586,-21.51563 a 234.18344,234.18344 0 0 0 8.3066,-60.64062 234.18344,234.18344 0 0 0 -234.1855,-234.18359 z"
           transform="scale(0.26458333)"
           id="path831" />
      </g>
    </g>
  </g>
</svg>
