<?xml version="1.0" encoding="UTF-8" standalone="no"?>
<!-- Created with Inkscape (http://www.inkscape.org/) -->

<svg
   xmlns:dc="http://purl.org/dc/elements/1.1/"
   xmlns:cc="http://creativecommons.org/ns#"
   xmlns:rdf="http://www.w3.org/1999/02/22-rdf-syntax-ns#"
   xmlns:svg="http://www.w3.org/2000/svg"
   xmlns="http://www.w3.org/2000/svg"
   xmlns:sodipodi="http://sodipodi.sourceforge.net/DTD/sodipodi-0.dtd"
   xmlns:inkscape="http://www.inkscape.org/namespaces/inkscape"
   width="162.26649mm"
   height="185.77814mm"
   viewBox="0 0 162.26649 185.77814"
   version="1.1"
   id="svg8"
   inkscape:version="0.92.3 (2405546, 2018-03-11)"
   sodipodi:docname="dre.svg">
  <defs
     id="defs2" />
  <sodipodi:namedview
     id="base"
     pagecolor="#ffffff"
     bordercolor="#666666"
     borderopacity="1.0"
     inkscape:pageopacity="0.0"
     inkscape:pageshadow="2"
     inkscape:zoom="0.7"
     inkscape:cx="21.394341"
     inkscape:cy="454.61566"
     inkscape:document-units="mm"
     inkscape:current-layer="layer1"
     showgrid="false"
     inkscape:window-width="1920"
     inkscape:window-height="1017"
     inkscape:window-x="1912"
     inkscape:window-y="-8"
     inkscape:window-maximized="1" />
  <metadata
     id="metadata5">
    <rdf:RDF>
      <cc:Work
         rdf:about="">
        <dc:format>image/svg+xml</dc:format>
        <dc:type
           rdf:resource="http://purl.org/dc/dcmitype/StillImage" />
        <dc:title />
      </cc:Work>
    </rdf:RDF>
  </metadata>
  <g
     inkscape:label="Camada 1"
     inkscape:groupmode="layer"
     id="layer1"
     transform="translate(-27.417532,-55.375614)">
    <path
       style="opacity:1;fill:#e9c6af;fill-opacity:1;fill-rule:nonzero;stroke:none;stroke-width:5.34175014;stroke-linecap:butt;stroke-linejoin:miter;stroke-miterlimit:4;stroke-dasharray:none;stroke-dashoffset:0;stroke-opacity:1;paint-order:stroke fill markers"
       d="m 108.55102,67.420942 a 53.855267,66.982495 0 0 0 -53.855935,66.982378 53.855267,66.982495 0 0 0 0.06319,1.54439 c -0.356312,-0.55926 -0.807115,-1.06328 -1.341867,-1.43393 -0.428049,-0.29645 -0.988075,-0.62013 -1.48824,-0.47586 -0.784455,0.22615 -1.210935,1.14486 -1.576606,1.87482 -0.624969,1.24738 -0.942797,2.68023 -0.951729,4.07543 -0.01424,2.56968 2.360347,7.3251 3.054773,9.79927 0.886406,3.15834 -0.660792,4.86478 1.794714,7.03994 0.394792,0.34968 1.072401,0.55661 1.547196,0.32782 0.590766,-0.28506 1.195307,-1.06152 1.686112,-1.73401 a 53.855267,66.982495 0 0 0 33.217352,42.0944 v 24.1213 l -63.282447,19.51662 h 43.765819 74.734758 43.76577 l -63.28235,-19.51662 v -24.11575 a 53.855267,66.982495 0 0 0 33.25603,-42.19933 c 0.50349,0.69462 1.13872,1.53347 1.76069,1.83339 0.47461,0.22899 1.15259,0.0237 1.54714,-0.32782 2.45551,-2.17516 0.90837,-3.8816 1.79478,-7.03994 0.69438,-2.47417 3.06968,-7.22959 3.05471,-9.79927 -0.009,-1.3952 -0.3278,-2.82805 -0.95262,-4.07543 -0.36581,-0.72996 -0.79211,-1.64853 -1.57661,-1.87482 -0.50016,-0.14441 -1.05943,0.17911 -1.48734,0.47586 -0.57104,0.39573 -1.0485,0.94288 -1.41459,1.54804 a 53.855267,66.982495 0 0 0 0.0237,-1.6585 53.855267,66.982495 0 0 0 -53.85498,-66.982378 z"
       id="path839"
       inkscape:connector-curvature="0" />
    <path
       style="fill:#2b1100;stroke:none;stroke-width:0.99999994px;stroke-linecap:butt;stroke-linejoin:miter;stroke-opacity:1"
       d="m 478.81285,213.38225 c -59.8053,-12.41214 -114.34653,5.68171 -167.6856,24.24292 -42.10823,14.65304 -83.31942,29.98239 -115.66207,67.17601 -5.16028,5.93425 19.56982,-11.27301 14.69367,-3.50593 -25.68573,40.91399 -75.80891,126.34631 -75.80891,153.51373 0,32.3249 1.01141,97.98496 6.06217,156.57383 5.05077,58.58884 13.80843,140.06863 -8.34682,184.37696 -15.14998,30.29848 -16.18039,85.65864 -28.43997,115.68658 78.45472,-23.90063 203.77914,-62.1558 239.17776,-73.76361 -0.95724,-38.43991 -3.5e-4,-66.12854 -3.5e-4,-91.16712 -34.81409,-15.37576 -65.60721,-42.24614 -89.07812,-77.73046 -4.38885,-34.65912 -7.05803,-69.56994 -2.19727,-103.86914 9.0102,-63.57899 20.91784,-133.88822 63.64063,-181.82813 33.36449,-37.43879 126.26798,-64.65 135.35937,-65.66016 9.09135,-1.01015 46.86516,-8.08307 66.66993,2.02149 29.93642,15.27381 48.54253,48.84226 61.62109,79.80078 7.41245,17.54615 7.12567,37.54467 8.08008,56.56836 1.62107,32.31228 -4.04102,96.97461 -4.04102,96.97461 0,0 -21.42942,70.44029 -23.57226,74.01172 l -23.81446,80.24609 c -17.39235,16.9742 -36.89188,30.31099 -57.73242,39.48633 0.33058,42.79193 -0.6067,45.37587 -2.1e-4,91.14563 79.19447,24.03891 167.51588,53.44265 239.17795,73.76453 -0.48079,-50.39241 -9.70516,-53.48178 -30.01172,-125.3086 C 668.07234,714.87227 670.32222,639.54935 666.70117,565.92578 664.2696,516.487 674.64886,466.1149 665.69141,417.43359 656.97634,370.06957 642.75864,321.55543 615.18359,282.07227 606.29599,269.34662 594.94146,255.30572 579.82812,251.76758 560.63121,247.27344 522.5,266.32617 522.5,266.32617 c 0.19138,-18.9575 0.0198,-7.11366 -4.29218,-18.5985 -9.92616,-26.43802 -9.45801,-28.13224 -39.39497,-34.34542 z M 196.32367,478.82952 c -1.43717,25.05605 10.63727,34.98884 10.63727,34.98884 0,0 8.97596,6.4802 9.21094,31.39844 0.1219,12.92652 -0.29089,28.45194 -0.99805,44.88281 -1.36675,1.65839 -2.83307,3.17048 -4.28906,3.87305 -1.79451,0.86471 -4.35553,0.0833 -5.84766,-1.23828 -9.28065,-8.22108 -3.43301,-14.67235 -6.7832,-26.60938 -2.62461,-9.35119 -11.59875,-27.32298 -11.54493,-37.03516 0.0338,-5.27319 1.23362,-10.68979 3.59571,-15.40429 1.38206,-2.75891 2.99411,-6.2312 5.95898,-7.08594 1.89039,-0.54527 4.00718,0.67839 5.625,1.79883 2.02111,1.40088 3.72558,3.30618 5.07227,5.41992 -0.0981,-1.94475 -0.17823,-3.89084 -0.24024,-5.83789 0.085,-12.93669 -12.06859,-16.38197 -10.39703,-29.15095 z m 427.65875,27.64509 c 0.24186,0.0166 0.48246,0.0568 0.71875,0.125 2.96504,0.85527 4.5764,4.32703 5.95899,7.08594 2.36152,4.7145 3.56754,10.1311 3.60156,15.40429 0.0566,9.71218 -8.92245,27.68397 -11.54688,37.03516 -3.35021,11.93703 2.49747,18.3883 -6.7832,26.60938 -1.49121,1.32855 -4.05385,2.10375 -5.84766,1.23828 -0.88542,-0.42697 -1.77812,-1.14277 -2.64843,-2.00977 0.17071,-28.7303 1.85716,-56.50224 6.29883,-77.71289 1.38362,-2.28722 3.18744,-4.35589 5.3457,-5.85156 1.41514,-0.98138 3.20931,-2.04004 4.90234,-1.92383 z m -48.44698,166.04604 c 0,0 1.19976,-20.65532 0.98409,-19.06753 -4.95528,8.66862 -10.34487,16.94022 -16.13672,24.76563 z"
       transform="scale(0.26458333)"
       id="path998"
       inkscape:connector-curvature="0"
       sodipodi:nodetypes="sacssssccccsssssscccccccassscssccscccccccccccccccccccccccccc" />
    <path
       style="fill:#800000;stroke:none;stroke-width:0.99999994px;stroke-linecap:butt;stroke-linejoin:miter;stroke-opacity:1"
       d="m 500.71764,845.559 c 0,0 -21.32109,23.89295 -41.60241,27.95858 -33.34508,6.68442 -69.94629,11.29189 -102.02539,0 -14.33663,-5.04652 -22.87866,-15.14823 -35.54306,-28.56131 l -217.92146,66.49008 165.41374,9.2e-4 h 282.46289 165.41407 z"
       transform="scale(0.26458333)"
       id="path1019"
       inkscape:connector-curvature="0"
       sodipodi:nodetypes="csacccccc" />
  </g>
</svg>
