<?xml version="1.0" encoding="UTF-8" standalone="no"?>
<!-- Created with Inkscape (http://www.inkscape.org/) -->

<svg
   xmlns:dc="http://purl.org/dc/elements/1.1/"
   xmlns:cc="http://creativecommons.org/ns#"
   xmlns:rdf="http://www.w3.org/1999/02/22-rdf-syntax-ns#"
   xmlns:svg="http://www.w3.org/2000/svg"
   xmlns="http://www.w3.org/2000/svg"
   xmlns:sodipodi="http://sodipodi.sourceforge.net/DTD/sodipodi-0.dtd"
   xmlns:inkscape="http://www.inkscape.org/namespaces/inkscape"
   width="126.00613mm"
   height="123.99906mm"
   viewBox="0 0 126.00613 123.99906"
   version="1.1"
   id="svg8"
   sodipodi:docname="html.svg"
   inkscape:version="0.92.3 (2405546, 2018-03-11)">
  <defs
     id="defs2" />
  <sodipodi:namedview
     id="base"
     pagecolor="#ffffff"
     bordercolor="#666666"
     borderopacity="1.0"
     inkscape:pageopacity="0.0"
     inkscape:pageshadow="2"
     inkscape:zoom="0.49497474"
     inkscape:cx="-166.95002"
     inkscape:cy="342.99223"
     inkscape:document-units="mm"
     inkscape:current-layer="layer2"
     showgrid="false"
     showguides="true"
     inkscape:guide-bbox="true"
     inkscape:window-width="1920"
     inkscape:window-height="1017"
     inkscape:window-x="-8"
     inkscape:window-y="-8"
     inkscape:window-maximized="1" />
  <metadata
     id="metadata5">
    <rdf:RDF>
      <cc:Work
         rdf:about="">
        <dc:format>image/svg+xml</dc:format>
        <dc:type
           rdf:resource="http://purl.org/dc/dcmitype/StillImage" />
      </cc:Work>
    </rdf:RDF>
  </metadata>
  <g
     inkscape:label="Camada 1"
     inkscape:groupmode="layer"
     id="layer1"
     transform="translate(-48.160863,-100.21191)" />
  <g
     inkscape:groupmode="layer"
     id="layer2"
     inkscape:label="Camada 2"
     transform="translate(-48.160863,-100.21191)">
    <g
       id="g868"
       transform="matrix(0.443325,0,0,0.443325,311.41636,118.41433)">
      <g
         id="g833">
        <path
           style="fill:#e44d26;fill-opacity:1;stroke:none;stroke-width:0.26458332px;stroke-linecap:butt;stroke-linejoin:miter;stroke-opacity:1"
           d="m -590.80095,-41.058864 c 0,0 -15.42073,152.715034 23.43454,212.422614 24.32747,37.3832 115.6607,67.27977 115.6607,67.27977 V -17.62434 c 0,0 -140.60715,-21.166667 -139.09524,-23.434524 z"
           id="path818"
           inkscape:connector-curvature="0"
           sodipodi:nodetypes="caccc" />
        <path
           sodipodi:nodetypes="caccc"
           inkscape:connector-curvature="0"
           id="path820"
           d="m -312.61047,-41.058864 c 0,0 15.42073,152.715034 -23.43454,212.422614 -24.32747,37.3832 -115.6607,67.27977 -115.6607,67.27977 V -17.62434 c 0,0 140.60715,-21.166667 139.09524,-23.434524 z"
           style="fill:#f16428;fill-opacity:1;stroke:none;stroke-width:0.26458332px;stroke-linecap:butt;stroke-linejoin:miter;stroke-opacity:1" />
      </g>
      <path
         inkscape:connector-curvature="0"
         id="path835"
         d="m -515.34676,26.91592 7.14246,76.69801 h 57.35031 0.46021 29.89139 l -2.72767,32.89862 -27.26333,7.42839 -0.2603,0.0712 -0.94312,0.25676 -28.29606,-7.84093 -1.87491,-20.28512 h -25.39837 l 3.49443,40.1435 52.09622,14.38239 1.1167,-0.31081 v -7.2e-4 l 50.89491,-14.17754 6.92483,-78.00673 h -57.59144 -0.58608 -34.3183 l -2.21555,-25.824429 h 36.46986 0.71337 59.93646 l 2.26608,-25.432524 h -62.13995 -0.83857 z"
         style="fill:#ebebeb;fill-opacity:1;stroke:none;stroke-width:0.23864344px;stroke-linecap:butt;stroke-linejoin:miter;stroke-opacity:1" />
    </g>
  </g>
</svg>
