<?xml version="1.0" encoding="UTF-8" standalone="no"?>
<!-- Created with Inkscape (http://www.inkscape.org/) -->

<svg
   xmlns:dc="http://purl.org/dc/elements/1.1/"
   xmlns:cc="http://creativecommons.org/ns#"
   xmlns:rdf="http://www.w3.org/1999/02/22-rdf-syntax-ns#"
   xmlns:svg="http://www.w3.org/2000/svg"
   xmlns="http://www.w3.org/2000/svg"
   xmlns:xlink="http://www.w3.org/1999/xlink"
   xmlns:sodipodi="http://sodipodi.sourceforge.net/DTD/sodipodi-0.dtd"
   xmlns:inkscape="http://www.inkscape.org/namespaces/inkscape"
   width="153.91776mm"
   height="150.6203mm"
   viewBox="0 0 153.91776 150.6203"
   version="1.1"
   id="svg7014"
   inkscape:version="0.92.3 (2405546, 2018-03-11)"
   sodipodi:docname="inkscape.svg">
  <defs
     id="defs7008">
    <linearGradient
       inkscape:collect="always"
       id="linearGradient39328">
      <stop
         style="stop-color:#4d5770;stop-opacity:1;"
         offset="0"
         id="stop39324" />
      <stop
         id="stop39332"
         offset="0.69797182"
         style="stop-color:#4d5770;stop-opacity:0.49803922;" />
      <stop
         style="stop-color:#4d5770;stop-opacity:0;"
         offset="1"
         id="stop39326" />
    </linearGradient>
    <linearGradient
       inkscape:collect="always"
       id="linearGradient39320">
      <stop
         style="stop-color:#e6e6e4;stop-opacity:1;"
         offset="0"
         id="stop39316" />
      <stop
         style="stop-color:#e6e6e4;stop-opacity:0;"
         offset="1"
         id="stop39318" />
    </linearGradient>
    <linearGradient
       inkscape:collect="always"
       id="linearGradient39312">
      <stop
         style="stop-color:#525257;stop-opacity:1;"
         offset="0"
         id="stop39308" />
      <stop
         style="stop-color:#525257;stop-opacity:0;"
         offset="1"
         id="stop39310" />
    </linearGradient>
    <linearGradient
       inkscape:collect="always"
       id="linearGradient39302">
      <stop
         id="stop39300"
         offset="0"
         style="stop-color:#505054;stop-opacity:0;" />
      <stop
         id="stop39298"
         offset="1"
         style="stop-color:#505054;stop-opacity:1;" />
    </linearGradient>
    <linearGradient
       inkscape:collect="always"
       id="linearGradient39272">
      <stop
         style="stop-color:#ffffff;stop-opacity:1;"
         offset="0"
         id="stop39268" />
      <stop
         style="stop-color:#ffffff;stop-opacity:0;"
         offset="1"
         id="stop39270" />
    </linearGradient>
    <linearGradient
       inkscape:collect="always"
       xlink:href="#linearGradient39272"
       id="linearGradient39274"
       x1="-86.698494"
       y1="-51.202461"
       x2="68.436058"
       y2="211.3401"
       gradientUnits="userSpaceOnUse" />
    <linearGradient
       inkscape:collect="always"
       xlink:href="#linearGradient39272"
       id="linearGradient39282"
       x1="-54.928379"
       y1="196.30736"
       x2="-2.3531337"
       y2="257.05487"
       gradientUnits="userSpaceOnUse" />
    <linearGradient
       inkscape:collect="always"
       xlink:href="#linearGradient39302"
       id="linearGradient39304"
       x1="-105.95135"
       y1="205.45761"
       x2="30.602362"
       y2="262.52225"
       gradientUnits="userSpaceOnUse" />
    <linearGradient
       inkscape:collect="always"
       xlink:href="#linearGradient39312"
       id="linearGradient39314"
       x1="-17.702126"
       y1="273.51514"
       x2="103.7392"
       y2="262.82434"
       gradientUnits="userSpaceOnUse" />
    <linearGradient
       inkscape:collect="always"
       xlink:href="#linearGradient39320"
       id="linearGradient39322"
       x1="52.218857"
       y1="240.29866"
       x2="104.80415"
       y2="192.48466"
       gradientUnits="userSpaceOnUse" />
    <linearGradient
       inkscape:collect="always"
       xlink:href="#linearGradient39328"
       id="linearGradient39330"
       x1="-86.942505"
       y1="-40.748287"
       x2="342.68497"
       y2="163.35886"
       gradientUnits="userSpaceOnUse" />
    <filter
       inkscape:collect="always"
       style="color-interpolation-filters:sRGB"
       id="filter39362"
       x="-0.057258934"
       width="1.1145179"
       y="-0.063016698"
       height="1.1260334">
      <feGaussianBlur
         inkscape:collect="always"
         stdDeviation="3.4839706"
         id="feGaussianBlur39364" />
    </filter>
    <filter
       inkscape:collect="always"
       style="color-interpolation-filters:sRGB"
       id="filter39386"
       x="-0.071591564"
       width="1.1431831"
       y="-0.051639006"
       height="1.103278">
      <feGaussianBlur
         inkscape:collect="always"
         stdDeviation="8.9822229"
         id="feGaussianBlur39388" />
    </filter>
    <linearGradient
       inkscape:collect="always"
       xlink:href="#linearGradient39272"
       id="linearGradient39407"
       gradientUnits="userSpaceOnUse"
       x1="-86.698494"
       y1="-51.202461"
       x2="68.436058"
       y2="211.3401" />
    <filter
       inkscape:collect="always"
       style="color-interpolation-filters:sRGB"
       id="filter917"
       x="-0.0092043445"
       width="1.0184087"
       y="-0.017234747"
       height="1.0344695">
      <feGaussianBlur
         inkscape:collect="always"
         stdDeviation="0.19975178"
         id="feGaussianBlur919" />
    </filter>
    <filter
       inkscape:collect="always"
       style="color-interpolation-filters:sRGB"
       id="filter921"
       x="-0.011826566"
       width="1.0236531"
       y="-0.012178596"
       height="1.0243572">
      <feGaussianBlur
         inkscape:collect="always"
         stdDeviation="0.13443966"
         id="feGaussianBlur923" />
    </filter>
    <filter
       inkscape:collect="always"
       style="color-interpolation-filters:sRGB"
       id="filter925"
       x="-0.010577091"
       width="1.0211542"
       y="-0.013865258"
       height="1.0277305">
      <feGaussianBlur
         inkscape:collect="always"
         stdDeviation="0.17577885"
         id="feGaussianBlur927" />
    </filter>
  </defs>
  <sodipodi:namedview
     id="base"
     pagecolor="#ffffff"
     bordercolor="#666666"
     borderopacity="1.0"
     inkscape:pageopacity="0.0"
     inkscape:pageshadow="2"
     inkscape:zoom="0.7"
     inkscape:cx="132.52326"
     inkscape:cy="255.13199"
     inkscape:document-units="mm"
     inkscape:current-layer="layer1"
     showgrid="false"
     inkscape:window-width="1366"
     inkscape:window-height="705"
     inkscape:window-x="-8"
     inkscape:window-y="-8"
     inkscape:window-maximized="1" />
  <metadata
     id="metadata7011">
    <rdf:RDF>
      <cc:Work
         rdf:about="">
        <dc:format>image/svg+xml</dc:format>
        <dc:type
           rdf:resource="http://purl.org/dc/dcmitype/StillImage" />
        <dc:title />
      </cc:Work>
    </rdf:RDF>
  </metadata>
  <g
     inkscape:label="Camada 1"
     inkscape:groupmode="layer"
     id="layer1"
     transform="translate(-32.912892,-82.939334)">
    <g
       id="g39405"
       style="opacity:1"
       transform="matrix(0.32441879,0,0,0.32441879,68.663602,105.85304)">
      <g
         transform="translate(4.1577381)"
         id="g7608">
        <path
           sodipodi:nodetypes="ssssccccsssccscsscscccccscccsccscsscscccsss"
           style="fill:#010209;fill-opacity:1;stroke:#000000;stroke-width:0.26458332px;stroke-linecap:butt;stroke-linejoin:miter;stroke-opacity:1"
           d="m 117.49704,-70.495437 c -9.45842,-0.06393 -12.61459,1.207479 -21.648811,4.009057 -6.56701,2.036476 -12.61014,6.002988 -17.63975,10.69082 -33.48875,31.213066 -61.25252,65.4237593 -93.7705,97.067975 -32.46276,31.590479 -61.13783,63.812065 -93.317819,96.434945 -4.40088,4.46144 -6.37774,12.10631 -4.81107,18.17408 1.48071,5.73489 7.2686,9.69495 12.29434,12.82919 25.389299,15.83377 60.541259,10.79748 85.526559,27.26138 2.95325,1.94603 6.19776,4.56205 6.94893,8.01812 0.67059,3.08532 -0.68073,6.63763 -2.67271,9.0873 -9.05263,11.13264 -26.42953,11.7618 -37.9522,20.31246 -2.02355,1.50162 -5.09711,2.83782 -5.34542,5.34541 -0.18991,1.91793 1.69107,3.62046 3.20705,4.81055 25.04975,19.66469 61.17474,18.65651 89.80278,32.60731 4.53322,2.20909 9.68346,4.07633 12.82868,8.01812 2.70619,3.39161 4.86194,7.9951 4.27622,12.29434 -0.76061,5.58297 -5.71374,9.83874 -9.62163,13.89785 -2.47158,2.56722 -6.66362,3.39275 -8.55245,6.41461 -2.50047,4.00037 -4.19655,9.43319 -2.67271,13.89785 1.30486,3.82307 5.37906,6.4158 9.0873,8.01812 7.06359,3.05218 15.51189,0.30527 22.98516,2.13836 4.11335,1.00896 8.76127,1.81919 11.75949,4.81057 6.95696,6.94106 4.28269,20.30635 11.22567,27.26137 3.9508,3.95767 9.93386,5.89055 15.501381,6.41462 19.20466,1.80765 39.9213,-2.17544 56.66114,-11.76002 4.379,-2.50724 10.19247,-6.17929 10.15649,-11.22516 -0.0503,-7.05985 -12.04189,-8.85846 -14.43271,-15.50138 -1.02754,-2.85499 -0.85664,-6.39059 0.53433,-9.0873 5.34492,-10.36225 16.93393,-16.50505 27.2619,-21.91597 13.33366,-6.98563 30.19002,-5.42808 43.29762,-12.82919 4.83227,-2.72849 9.34123,-6.52677 12.29434,-11.22514 1.97987,-3.14997 4.21111,-7.10837 3.20704,-10.69083 -1.29386,-4.61642 -6.74984,-6.89139 -10.69082,-9.62162 -8.58168,-5.94523 -20.31032,-7.15539 -27.79572,-14.43272 -2.63064,-2.55752 -5.14773,-5.75676 -5.34541,-9.62164 -0.19768,-3.86488 4.81056,-11.22515 4.81056,-11.22515 0,0 64.31427,-19.44271 95.14818,-32.60731 11.06694,-4.72504 23.10371,-8.54727 32.07194,-16.57057 5.74554,-5.14015 11.60418,-11.63199 12.8292,-19.24327 1.43907,-8.94104 -7.21609,-26.19272 -7.21609,-26.19272 0,0 -58.57761,-59.324071 -91.57219,-92.925071 C 213.16076,9.0429058 173.6233,-34.50413 139.41353,-63.813676 c -3.86581,-3.31207 -16.82599,-6.647357 -21.91649,-6.681761 z"
           id="path7027"
           inkscape:connector-curvature="0" />
        <path
           style="fill:url(#linearGradient39322);fill-opacity:1;stroke:none;stroke-width:0.26458332px;stroke-linecap:butt;stroke-linejoin:miter;stroke-opacity:1"
           d="m 50.51394,222.56543 c -7.231856,-0.83995 -14.796143,0.44494 -21.782466,-1.60361 -2.869027,-0.84126 -5.638934,-2.3023 -7.884451,-4.27631 -0.742836,-0.65302 -1.418351,-1.37485 -1.312029,-2.35818 0.122083,-1.1291 1.910421,-1.80474 3.01153,-2.0828 5.882624,-1.48556 10.744434,-1.87516 16.608462,-2.10713 6.500914,-0.25717 13.021975,0.0604 19.510674,0.53454 1.879088,0.1373 5.612661,0.66817 5.612661,0.66817 l 0.801807,6.1472 c 0,0 5.87993,-5.34539 6.548104,-5.21175 0.668173,0.13363 6.949009,3.87541 6.949009,3.87541 l 11.492589,8.95352 15.368,-3.60813 v 10.55714 l 6.9409,-6.08513 c 0,0 0.45606,3.38964 0.51833,4.88242 0.0578,1.38614 0.10683,2.5877 -0.44816,3.8592 -0.64373,1.4748 -1.36811,2.46183 -2.78201,3.23015 -2.33594,1.26936 -4.94444,1.30658 -7.60096,1.20272 -4.890943,-0.19121 -9.825688,-1.66141 -14.487913,-3.15188 -8.94296,-2.85898 -17.476683,-6.51902 -26.106025,-10.21831 -1.704368,-0.73064 -3.300764,-1.74292 -5.078122,-2.27179 -1.902199,-0.56602 -3.908557,-0.70648 -5.87993,-0.93545 z"
           id="path7585"
           inkscape:connector-curvature="0"
           sodipodi:nodetypes="ssssssaccccccccssssssss" />
        <ellipse
           style="opacity:1;fill:#ffffff;fill-opacity:0.36180905;stroke:none;stroke-width:1.46354663;stroke-miterlimit:4;stroke-dasharray:none;stroke-opacity:1"
           id="path7587"
           cx="-2.5040925"
           cy="303.28387"
           rx="5.6696434"
           ry="2.1733632" />
        <ellipse
           style="opacity:1;fill:#ffffff;fill-opacity:0.36180905;stroke:none;stroke-width:1.49597144;stroke-miterlimit:4;stroke-dasharray:none;stroke-opacity:1"
           id="path7589"
           cx="262.26825"
           cy="305.10287"
           rx="3.3072915"
           ry="2.1497395" />
        <ellipse
           style="opacity:1;fill:#ffffff;fill-opacity:0.36180905;stroke:none;stroke-width:1.4447068;stroke-miterlimit:4;stroke-dasharray:none;stroke-opacity:1"
           id="path7591"
           cx="294.99875"
           cy="265.56244"
           rx="5.144938"
           ry="2.1715651" />
        <ellipse
           style="opacity:1;fill:#ffffff;fill-opacity:0.36180905;stroke:none;stroke-width:1.47249389;stroke-miterlimit:4;stroke-dasharray:none;stroke-opacity:1"
           id="path7593"
           cx="301.04572"
           cy="267.0658"
           rx="17.005022"
           ry="4.8108511" />
        <ellipse
           style="opacity:1;fill:#ffffff;fill-opacity:0.36180905;stroke:none;stroke-width:1.41231823;stroke-miterlimit:4;stroke-dasharray:none;stroke-opacity:1"
           id="path7595"
           cx="264.12909"
           cy="307.49036"
           rx="6.1471992"
           ry="6.481286" />
        <ellipse
           style="opacity:1;fill:#ffffff;fill-opacity:0.36180905;stroke:none;stroke-width:1.22100008;stroke-miterlimit:4;stroke-dasharray:none;stroke-opacity:1"
           id="path7597"
           cx="-63.251709"
           cy="297.00848"
           rx="15.497024"
           ry="3.1655507"
           transform="rotate(-11.630017)" />
        <path
           style="fill:#dedfe3;fill-opacity:1;stroke:none;stroke-width:0.26458332px;stroke-linecap:butt;stroke-linejoin:miter;stroke-opacity:1"
           d="m -5.8799295,47.904799 c -1.5975958,1.789418 -1.9891597,4.382369 -2.6726952,6.68174 -0.5177721,1.741753 -1.4462893,3.567891 -1.0690783,5.34539 0.4643872,2.188292 2.2381851,5.432058 3.8754082,5.479024 20.7105268,0.594113 55.8461518,0.578778 64.0110498,0.668175 l 24.054257,-51.583019 14.967096,59.868372 45.168552,-28.865107 28.0126,14.88753 6.26903,-40.687793 33.70866,28.237506 c 0,0 2.53771,-6.267482 2.68776,-9.495259 0.18166,-3.907626 -0.85357,-5.392546 -3.02381,-11.339285 -18.04456,-18.8676541 -56.65588,-58.017719 -76.30533,-76.70624 -3.90009,-3.709361 -9.87199,-4.470293 -15.11905,-5.669643 -2.71328,-0.620189 -5.53889,-0.948637 -8.31547,-0.755951 -3.87198,0.268704 -7.69889,1.29975 -11.33929,2.645833 -3.84517,1.4218 -10.914063,5.669642 -10.914063,5.669642 -4.503374,4.219157 -62.377408,60.204498 -93.9956265,95.619085 z"
           id="path7581"
           inkscape:connector-curvature="0"
           sodipodi:nodetypes="sssscccccccscsssscs" />
      </g>
      <path
         sodipodi:nodetypes="cscsascccssccc"
         inkscape:connector-curvature="0"
         id="path7610"
         d="m 18.708867,186.35041 c 0,0 -11.6262246,-5.87992 -30.86963,-9.6217 -19.243406,-3.74177 -50.380307,-10.15624 -50.380307,-10.15624 0,0 -13.974763,-3.12112 -20.563538,-5.85028 -1.55299,-0.64327 -5.73645,-2.44411 -7.48911,-4.84607 -1.579821,-2.16509 -2.370466,-5.09545 -2.100169,-7.76146 0.493518,-4.8677 7.073146,-13.23934 7.073146,-13.23934 L 92.273434,-47.714286 106.37327,-55.261237 c 0,0 8.5751,-1.007267 12.82894,-0.534537 4.76828,0.5299 9.51822,1.783522 13.89801,3.741771 4.46653,1.997031 12.2944,8.018087 12.2944,8.018087 l 2.54577,3.142383 z"
         style="fill:url(#linearGradient39407);fill-opacity:1;stroke:none;stroke-width:0.26458332px;stroke-linecap:butt;stroke-linejoin:miter;stroke-opacity:1" />
      <path
         sodipodi:nodetypes="cssssscssssc"
         inkscape:connector-curvature="0"
         id="path824"
         d="m 32.883927,270.54167 c 0,0 -20.829414,-10.78592 -31.5610104,-15.49703 -7.7982501,-3.42339 -15.7428926,-6.53761 -23.8124996,-9.26042 -4.968613,-1.67649 -10.350242,-2.16584 -15.119048,-4.34672 -1.573113,-0.71942 -3.108742,-1.62666 -4.346726,-2.83482 -0.875387,-0.8543 -2.020674,-1.80203 -2.078868,-3.02381 -0.06171,-1.2957 1.889881,-3.40179 1.889881,-3.40179 0,0 -2.797568,2.45906 -3.023811,4.15774 -0.186898,1.40327 0.559824,2.92107 1.511906,3.96875 4.585247,5.04565 12.955107,5.96018 19.267287,8.53689 9.019083,3.6817 17.9541679,6.24904 26.8458072,9.60597 10.2108558,3.85498 30.4270818,12.09524 30.4270818,12.09524 z"
         style="fill:url(#linearGradient39304);fill-opacity:1;stroke:none;stroke-width:0.26458332px;stroke-linecap:butt;stroke-linejoin:miter;stroke-opacity:1" />
      <path
         sodipodi:nodetypes="cssssscssssssssssc"
         inkscape:connector-curvature="0"
         id="path826"
         d="m -21.072172,245.97321 c 0,0 -1.130247,-2.2652 -1.322917,-3.49628 -0.190192,-1.21524 -0.243255,-2.53368 0.188988,-3.68527 0.662084,-1.76394 2.184481,-3.08881 3.49628,-4.44122 3.175749,-3.27406 7.199034,-5.6285 10.4888388,-8.78794 2.3640984,-2.27041 4.6708964,-4.63677 6.6145834,-7.27605 2.21033369,-3.00136 5.6696428,-9.63839 5.6696428,-9.63839 0,0 -10.0791204,4.8024 -14.741071,7.84301 -1.578107,1.02927 -2.82293,2.53142 -4.44122,3.49628 -3.065742,1.82787 -6.529781,2.88632 -9.827381,4.25223 -4.663511,1.93169 -9.680841,3.09915 -14.079613,5.57515 -1.136377,0.63965 -2.22869,1.40889 -3.118303,2.36235 -0.667513,0.71542 -1.250643,1.54535 -1.606399,2.45685 -0.139321,0.35696 -0.284191,0.76275 -0.188989,1.13392 0.328769,1.2818 1.436423,2.27579 2.456847,3.11831 1.640354,1.35437 3.714963,2.09008 5.669642,2.92931 2.205953,0.94711 4.495277,1.70278 6.80357,2.36235 2.608283,0.74529 7.937501,1.79539 7.937501,1.79539 z"
         style="fill:url(#linearGradient39282);fill-opacity:1;stroke:none;stroke-width:0.26458332px;stroke-linecap:butt;stroke-linejoin:miter;stroke-opacity:1" />
      <path
         sodipodi:nodetypes="ssscsssssassssssassssssaasssaaaaassscscaszsssssszzcs"
         inkscape:connector-curvature="0"
         id="path39264"
         d="m 41.579405,322.5796 c 0.137333,2.56336 1.778915,3.57699 4.123685,4.62185 4.495056,2.00306 9.747397,1.40692 14.566188,2.40543 4.67592,0.9689 13.898015,3.47451 13.898015,3.47451 0,0 6.789157,4.75045 9.220797,8.01809 3.035002,4.07843 4.592635,9.10272 6.280836,13.89801 0.947167,2.6904 0.843415,5.74388 2.138156,8.28534 1.048548,2.05821 2.494981,4.05368 4.409948,5.34541 2.9432,1.98532 6.62988,2.79643 10.15624,3.20722 7.18744,0.83728 14.48659,-0.57275 21.64883,-1.60361 7.12578,-1.02561 14.18325,-2.59698 21.11429,-4.54358 3.90613,-1.09704 8.72975,-1.03785 11.49259,-4.00905 1.63351,-1.7567 2.08028,-4.55935 1.87089,-6.94902 -0.40355,-4.60558 -5.02344,-8.01844 -5.87993,-12.56164 -0.76082,-4.03576 0.53454,-10.69079 0.80181,-12.29442 0.26727,-1.60362 4.81084,-9.35444 5.87993,-10.69079 1.06907,-1.33634 6.44284,-4.52723 9.88897,-6.41445 6.60917,-3.61942 16.83798,-8.55264 20.57976,-9.35445 3.74177,-0.8018 22.17836,-6.2103 32.87415,-10.4235 3.67066,-1.44592 7.72856,-2.47242 10.69078,-5.07812 2.22664,-1.95865 3.25695,-4.95776 4.81085,-7.48355 0.92072,-1.49659 3.20723,-2.40541 2.67269,-4.54359 -0.53453,-2.13815 -8.8199,-5.87991 -10.15624,-8.01806 -1.33636,-2.13818 -7.45291,-4.5068 -11.22532,-6.68175 -3.80073,-2.19127 -7.95051,-3.82586 -11.49259,-6.41447 -3.15504,-2.30576 -7.21627,-5.07812 -8.55262,-8.01808 -1.33635,-2.93997 -2.13816,-8.55263 -1.33635,-10.69079 0.80181,-2.13815 4.24736,-7.06326 6.80728,-8.71451 7.62296,-4.9171 16.4285,-6.1176 24.73052,-8.92527 8.40772,-2.84341 16.98176,-5.17803 25.39061,-8.01809 8.97086,-3.02988 17.97958,-5.99682 26.72696,-9.6217 14.10097,-5.84338 28.98378,-10.67017 41.42676,-19.51068 5.18703,-3.68529 10.27576,-8.06723 13.36347,-13.63074 1.46799,-2.64507 2.40545,-7.21628 2.13818,-8.8199 -0.26727,-1.60362 1.6036,-15.23435 -8.81991,-23.51971 C 323.39612,127.01659 296.3914,99.144586 277.96029,80.778952 262.29666,65.170965 231.45541,33.472247 231.45541,33.472247 c 0,0 -17.66651,-20.614366 -26.99422,-30.4687275 -15.76348,-16.6535005 -48.91033,-48.3757845 -48.91033,-48.3757845 0,0 102.97471,113.546751 94.07888,180.941465 -3.03655,23.0049 -43.29767,50.24668 -47.03944,51.31575 -3.74177,1.06908 -73.70122,46.11779 -86.59533,62.54107 -12.89411,16.42328 -9.01098,11.30666 -6.949,17.10525 2.11066,5.9355 3.20723,3.74178 16.57071,9.08717 13.36347,5.34539 25.94663,8.11483 30.46872,19.24341 3.44907,8.48796 2.13816,14.43254 -6.41447,26.72694 -8.55262,12.29439 -4.16811,20.50233 -10.15624,26.72696 -5.98813,6.22463 -4.55702,1.93249 -21.38156,9.08717 -14.47581,6.15587 -23.444779,-12.40047 -32.315054,-20.93319 -8.870276,-8.53271 -20.599468,-12.63222 -28.400985,-15.9176 -7.801516,-3.28537 -0.286265,-10.74448 -0.286265,-10.74448 0,0 -16.018196,4.05944 -15.551421,12.77195 z"
         style="fill:url(#linearGradient39330);fill-opacity:1;stroke:none;stroke-width:0.26458332px;stroke-linecap:butt;stroke-linejoin:miter;stroke-opacity:1;filter:url(#filter39386)" />
      <path
         sodipodi:nodetypes="ssssssasscssssssss"
         inkscape:connector-curvature="0"
         id="path39266"
         d="m 109.61309,340.84524 c -9.05445,-1.57558 -16.834858,-7.71913 -24.190473,-13.22916 -6.274662,-4.7003 -13.709642,-9.35566 -16.630951,-16.63097 -2.160081,-5.37953 0.532713,-11.59197 0.377976,-17.38691 -0.313649,-11.74621 4.707662,-25.98673 -2.645834,-35.15177 -7.083941,-8.82908 -30.616067,-9.07143 -32.505951,-9.82739 -1.88988,-0.75595 -20.460179,-0.005 -28.9151784,-4.91369 -5.496853,-3.19122 -12.524878,-8.39956 -12.0952382,-14.74107 0.3254146,-4.80313 1.9262493,-3.64847 5.858631,-6.42559 7.779459,-5.494 25.3244046,-13.22917 25.3244046,-13.22917 0,0 -3.521316,6.91772 -1.889881,9.82738 3.158809,5.63372 11.925991,5.05216 18.142856,6.80357 10.250851,2.88787 21.66253,1.67207 31.372024,6.04762 10.729468,4.8352 20.974114,12.0813 27.970239,21.54464 5.759426,7.79051 5.412776,18.79442 10.205356,27.21429 6.87193,12.07298 21.47282,19.40059 26.08036,32.50596 2.59088,7.36933 5.07676,17.49768 0,23.43452 -5.80217,6.78514 -17.66283,5.68826 -26.45834,4.15774 z"
         style="fill:url(#linearGradient39314);fill-opacity:1;stroke:none;stroke-width:0.26458332px;stroke-linecap:butt;stroke-linejoin:miter;stroke-opacity:1;filter:url(#filter39362)" />
    </g>
    <g
       id="g39512"
       style="fill:#10131d;fill-opacity:1;filter:url(#filter925)"
       transform="matrix(0.32441879,0,0,0.32441879,25.787776,103.34407)">
      <path
         sodipodi:nodetypes="ssssssssssssssssssass"
         inkscape:connector-curvature="0"
         id="path39453"
         d="m 115.56066,318.21451 c -0.42788,1.50449 -0.70134,2.88064 -0.7684,4.44335 -0.0514,1.19831 0.53139,2.3452 0.93544,3.47451 0.51043,1.42662 0.92766,2.9569 1.87089,4.14269 2.19628,2.76107 5.11966,5.16481 8.41899,6.41445 1.7125,0.64862 3.64782,0.39304 5.47902,0.40093 1.38375,0.006 3.60813,-2e-5 4.14268,-0.26729 0.53453,-0.26727 4.27631,-1.87089 5.21176,-2.27179 0.93544,-0.4009 3.74177,-2.93997 4.14268,-4.00904 0.4009,-1.06908 2.40542,-4.27631 2.80633,-5.07813 0.40089,-0.80179 2.53906,-4.94448 3.20723,-5.47901 0.66818,-0.53454 2.40542,-3.74177 2.80633,-4.27631 0.4009,-0.53453 1.06155,-2.40379 0.80181,-3.60815 -0.18782,-0.87087 -0.90918,-1.58007 -1.60362,-2.13815 -1.25864,-1.0115 -3.74177,-1.73726 -4.40994,-2.00453 -0.66818,-0.26727 -3.47451,-0.53452 -4.40995,-0.66815 -0.93545,-0.13363 -5.21176,-0.93547 -7.88445,-0.40093 -2.6727,0.53454 -9.60669,1.21491 -13.76439,3.47451 -0.74773,0.40638 -1.99349,0.97049 -2.83973,1.67043 -1.02765,0.84999 -2.23838,2.20498 -2.63929,3.0068 -0.4009,0.80179 -1.20466,2.12344 -1.50339,3.17381 z"
         style="opacity:1;fill:#10131d;fill-opacity:1;stroke:none;stroke-width:0.26458332px;stroke-linecap:butt;stroke-linejoin:miter;stroke-opacity:1" />
      <ellipse
         transform="matrix(0.98083378,-0.19484632,0.14311518,0.98970604,0,0)"
         ry="3.8310237"
         rx="15.826922"
         cy="332.67804"
         cx="88.087349"
         id="path39457"
         style="opacity:1;fill:#10131d;fill-opacity:1;stroke:none;stroke-width:1.30871654;stroke-miterlimit:4;stroke-dasharray:none;stroke-opacity:1" />
      <ellipse
         ry="2.2678573"
         rx="5.8586316"
         cy="310.98514"
         cx="133.70908"
         id="path39455"
         style="opacity:1;fill:#10131d;fill-opacity:1;stroke:none;stroke-width:1.60236073;stroke-miterlimit:4;stroke-dasharray:none;stroke-opacity:1" />
    </g>
    <g
       id="g39517"
       style="fill:#0c0e18;fill-opacity:1;filter:url(#filter921)"
       transform="matrix(0.32441879,0,0,0.32441879,25.787776,103.34407)">
      <path
         sodipodi:nodetypes="ssssssssssssssassssss"
         inkscape:connector-curvature="0"
         id="path39459"
         d="m 392.33927,317.78868 c -0.0945,-4.44121 -0.64304,-5.57699 0.56698,-7.9375 0.5611,-1.0946 1.71561,-1.85211 2.83482,-2.36236 1.07428,-0.48976 2.32019,-0.67065 3.49628,-0.56694 1.3297,0.11726 2.67529,0.57324 3.77976,1.32291 1.82896,1.24143 3.07205,3.20225 4.34674,5.00819 0.47987,0.67986 1.13392,1.79539 1.2284,2.17334 0.0945,0.37799 0.82905,3.45832 1.8899,4.8192 0.66634,0.85479 1.66041,1.43864 2.64583,1.8899 1.09051,0.49938 2.17336,0.47248 3.49628,0.85045 1.32291,0.37797 3.1183,1.41741 2.74032,1.51191 -0.37799,0.0945 -2.75756,2.45461 -3.77976,3.96875 -0.4259,0.63087 -0.51137,1.45322 -0.94493,2.07885 -0.45671,0.65903 0.0945,1.03944 -1.7009,1.7009 -1.79539,0.66146 -4.31507,1.06882 -6.5201,1.13393 -1.39423,0.0412 -3.68526,-0.0945 -4.15775,-0.47247 -0.47247,-0.37797 -2.26785,-1.7009 -2.64583,-2.26787 -0.37796,-0.56695 -1.22841,-1.51189 -1.79538,-2.45685 -0.56695,-0.94493 -1.5119,-1.88987 -2.36233,-3.21278 -0.85044,-1.32292 -1.22843,-2.26787 -1.7009,-3.02382 -0.47246,-0.75594 -1.361,-1.50577 -1.41743,-4.15774 z"
         style="fill:#0c0e18;fill-opacity:1;stroke:none;stroke-width:0.26458332px;stroke-linecap:butt;stroke-linejoin:miter;stroke-opacity:1" />
      <circle
         r="6.2366071"
         cy="315.33185"
         cx="399.80435"
         id="path39461"
         style="opacity:1;fill:#0c0e18;fill-opacity:1;stroke:none;stroke-width:1.27914298;stroke-miterlimit:4;stroke-dasharray:none;stroke-opacity:1" />
      <ellipse
         ry="2.173363"
         rx="3.4017856"
         cy="312.68604"
         cx="398.3869"
         id="path39463"
         style="opacity:1;fill:#0c0e18;fill-opacity:1;stroke:none;stroke-width:1.45262301;stroke-miterlimit:4;stroke-dasharray:none;stroke-opacity:1" />
    </g>
    <g
       id="g39527"
       style="fill:#161825;fill-opacity:1;filter:url(#filter917)"
       transform="matrix(0.32441879,0,0,0.32441879,25.787776,103.34407)">
      <path
         sodipodi:nodetypes="cssasscsssac"
         inkscape:connector-curvature="0"
         id="path39465"
         d="m 412.66414,290.8528 c 0,0 -1.66531,-2.7552 -1.60362,-4.27632 0.0678,-1.67247 1.33635,-2.67269 2.13816,-4.54359 0.8018,-1.87087 1.54726,-5.83394 3.4745,-8.01806 1.50628,-1.70705 3.73297,-2.71728 5.87994,-3.47451 4.66958,-1.64694 9.74975,-2.01941 14.69983,-2.13815 5.54777,-0.13308 16.5707,1.60361 16.5707,1.60361 0,0 5.42403,3.85322 6.94901,6.68173 1.8492,3.42986 2.85561,7.66262 2.13815,11.4926 -0.40514,2.16274 -1.87089,5.61266 -3.4745,5.61266 -1.60362,0 -12.7827,2.62333 -19.24341,2.40541 -9.34233,-0.31511 -27.52876,-5.34538 -27.52876,-5.34538 z"
         style="fill:#161825;fill-opacity:1;stroke:none;stroke-width:0.26458332px;stroke-linecap:butt;stroke-linejoin:miter;stroke-opacity:1" />
      <ellipse
         ry="5.0113034"
         rx="17.773422"
         cy="274.48257"
         cx="437.92111"
         id="path39467"
         style="opacity:1;fill:#161825;fill-opacity:1;stroke:none;stroke-width:1.36941648;stroke-miterlimit:4;stroke-dasharray:none;stroke-opacity:1" />
      <ellipse
         ry="2.0646234"
         rx="5.1024399"
         cy="273.28653"
         cx="431.08139"
         id="path39469"
         style="opacity:1;fill:#161825;fill-opacity:1;stroke:none;stroke-width:1.54695237;stroke-miterlimit:4;stroke-dasharray:none;stroke-opacity:1" />
    </g>
  </g>
</svg>
