<?xml version="1.0" encoding="UTF-8" standalone="no"?>
<!-- Created with Inkscape (http://www.inkscape.org/) -->

<svg
   xmlns:dc="http://purl.org/dc/elements/1.1/"
   xmlns:cc="http://creativecommons.org/ns#"
   xmlns:rdf="http://www.w3.org/1999/02/22-rdf-syntax-ns#"
   xmlns:svg="http://www.w3.org/2000/svg"
   xmlns="http://www.w3.org/2000/svg"
   xmlns:xlink="http://www.w3.org/1999/xlink"
   xmlns:sodipodi="http://sodipodi.sourceforge.net/DTD/sodipodi-0.dtd"
   xmlns:inkscape="http://www.inkscape.org/namespaces/inkscape"
   width="123.28117mm"
   height="140.98036mm"
   viewBox="0 0 123.28117 140.98036"
   version="1.1"
   id="svg7014"
   inkscape:version="0.92.3 (2405546, 2018-03-11)"
   sodipodi:docname="inkscape.svg">
  <defs
     id="defs7008">
    <linearGradient
       inkscape:collect="always"
       id="linearGradient39272">
      <stop
         style="stop-color:#ffffff;stop-opacity:1;"
         offset="0"
         id="stop39268" />
      <stop
         style="stop-color:#ffffff;stop-opacity:0;"
         offset="1"
         id="stop39270" />
    </linearGradient>
    <linearGradient
       inkscape:collect="always"
       xlink:href="#linearGradient39272"
       id="linearGradient39274"
       x1="-86.698494"
       y1="-51.202461"
       x2="68.436058"
       y2="211.3401"
       gradientUnits="userSpaceOnUse" />
  </defs>
  <sodipodi:namedview
     id="base"
     pagecolor="#ffffff"
     bordercolor="#666666"
     borderopacity="1.0"
     inkscape:pageopacity="0.0"
     inkscape:pageshadow="2"
     inkscape:zoom="0.35"
     inkscape:cx="-160.13821"
     inkscape:cy="663.80148"
     inkscape:document-units="mm"
     inkscape:current-layer="layer1"
     showgrid="false"
     inkscape:window-width="1920"
     inkscape:window-height="1017"
     inkscape:window-x="-8"
     inkscape:window-y="-8"
     inkscape:window-maximized="1"
     showguides="true"
     inkscape:guide-bbox="true" />
  <metadata
     id="metadata7011">
    <rdf:RDF>
      <cc:Work
         rdf:about="">
        <dc:format>image/svg+xml</dc:format>
        <dc:type
           rdf:resource="http://purl.org/dc/dcmitype/StillImage" />
        <dc:title />
      </cc:Work>
    </rdf:RDF>
  </metadata>
  <g
     inkscape:label="Camada 1"
     inkscape:groupmode="layer"
     id="layer1"
     transform="translate(-48.126781,-88.128073)">
    <g
       id="g1118"
       transform="matrix(0.15376444,0.12773968,-0.12773968,0.15376444,153.67582,196.24756)">
      <path
         inkscape:connector-curvature="0"
         id="path909"
         d="m -330.66122,111.77255 -41.61637,-505.65339 80.19074,-45.00964 V 113.3632 Z"
         style="fill:#ffffff;stroke:none;stroke-width:0.26458332px;stroke-linecap:butt;stroke-linejoin:miter;stroke-opacity:1" />
      <path
         style="fill:#f2f2f2;stroke:none;stroke-width:0.26458332px;stroke-linecap:butt;stroke-linejoin:miter;stroke-opacity:1"
         d="m -253.51248,111.77255 41.61637,-505.65339 -80.19074,-45.00964 V 113.3632 Z"
         id="path911"
         inkscape:connector-curvature="0" />
      <g
         id="g1094">
        <rect
           style="opacity:1;fill:#000000;fill-opacity:1;fill-rule:nonzero;stroke:none;stroke-width:0.18369378;stroke-linecap:butt;stroke-linejoin:miter;stroke-miterlimit:4;stroke-dasharray:none;stroke-dashoffset:0;stroke-opacity:1;paint-order:stroke fill markers"
           id="rect903"
           width="53.140209"
           height="185.22594"
           x="-319.89868"
           y="184.00014"
           ry="0.094494089" />
        <g
           id="g1055"
           transform="translate(1.9371651)">
          <g
             id="g1050">
            <path
               inkscape:connector-curvature="0"
               id="path917"
               d="m -294.59861,79.408916 c -3.06849,-0.02074 -4.09241,0.391729 -7.02328,1.300613 -2.13046,0.660671 -4.09097,1.947482 -5.72267,3.468303 -10.86438,10.126105 -19.87147,21.224698 -30.42091,31.490678 -10.53153,10.24854 -19.83426,20.70183 -30.27406,31.28531 -1.42772,1.44737 -2.06905,3.92751 -1.5608,5.89601 0.48037,1.8605 2.35807,3.14522 3.98852,4.16203 8.23676,5.13677 19.64072,3.5029 27.74642,8.8441 0.95809,0.63133 2.01067,1.48002 2.25436,2.60123 0.21756,1.00094 -0.22084,2.15337 -0.86707,2.94809 -2.93685,3.61164 -8.57424,3.81575 -12.31241,6.58975 -0.65648,0.48715 -1.6536,0.92064 -1.73416,1.73415 -0.0616,0.62221 0.54862,1.17454 1.04043,1.56063 8.12661,6.37959 19.84624,6.05252 29.13371,10.57842 1.47066,0.71667 3.1415,1.32244 4.16187,2.60123 0.87794,1.1003 1.5773,2.59376 1.38728,3.98852 -0.24675,1.81122 -1.85364,3.19187 -3.12144,4.50872 -0.80182,0.83286 -2.1618,1.10067 -2.77457,2.08102 -0.8112,1.2978 -1.36144,3.06031 -0.86708,4.50873 0.42332,1.24027 1.74507,2.0814 2.94809,2.60122 2.29156,0.99019 5.03235,0.099 7.45682,0.69373 1.33445,0.32732 2.84232,0.59018 3.815,1.56064 2.25697,2.25181 1.38939,6.58776 3.64182,8.8441 1.28171,1.28394 3.22273,1.911 5.02894,2.08102 6.23035,0.58644 12.95122,-0.70575 18.38194,-3.81517 1.42063,-0.8134 3.30662,-2.00468 3.29495,-3.64165 -0.0163,-2.29035 -3.90661,-2.87385 -4.68224,-5.02894 -0.33335,-0.92621 -0.27791,-2.07323 0.17335,-2.94809 1.73399,-3.36171 5.49368,-5.35455 8.84427,-7.10996 4.32569,-2.26626 9.79421,-1.76097 14.04656,-4.16203 1.56768,-0.88517 3.03047,-2.1174 3.98852,-3.64164 0.6423,-1.02191 1.36616,-2.30609 1.04042,-3.46831 -0.41975,-1.49765 -2.18978,-2.23569 -3.4683,-3.12143 -2.78406,-1.92875 -6.58905,-2.32135 -9.01746,-4.68225 -0.85343,-0.82971 -1.67002,-1.8676 -1.73415,-3.12144 -0.0641,-1.25384 1.56064,-3.64165 1.56064,-3.64165 0,0 20.86476,-6.30758 30.86786,-10.57842 3.59032,-1.53289 7.49527,-2.7729 10.40474,-5.37581 1.86396,-1.66756 3.76461,-3.77363 4.16203,-6.24288 0.46686,-2.90064 -2.34104,-8.49741 -2.34104,-8.49741 0,0 -19.00367,-19.24584 -29.70774,-30.14663 -10.70405,-10.9008 -23.53075,-25.028278 -34.62904,-34.536846 -1.25414,-1.074497 -5.45867,-2.156527 -7.11012,-2.167688 z"
               style="fill:#000000;fill-opacity:1;stroke:#000000;stroke-width:0.0858358px;stroke-linecap:butt;stroke-linejoin:miter;stroke-opacity:1"
               sodipodi:nodetypes="ssssccccsssccscsscscccccscccsccscsscscccsss" />
            <path
               sodipodi:nodetypes="sssscccccccscsssscs"
               inkscape:connector-curvature="0"
               id="path933"
               d="m -334.62442,117.82018 c -0.51829,0.58052 -0.64532,1.42172 -0.86707,2.16768 -0.16798,0.56506 -0.46921,1.15749 -0.34683,1.73414 0.15065,0.70993 0.72611,1.76227 1.25725,1.7775 6.71889,0.19274 18.11754,0.18777 20.76639,0.21677 l 7.80365,-16.7345 4.85561,19.42242 14.65353,-9.36438 9.08781,4.8298 2.03379,-13.19989 10.93573,9.16078 c 0,0 0.82328,-2.03329 0.87196,-3.08044 0.0589,-1.26771 -0.27692,-1.74944 -0.98098,-3.67868 -5.854,-6.12102 -18.38024,-18.822036 -24.75489,-24.884944 -1.26526,-1.203386 -3.20266,-1.450247 -4.9049,-1.839339 -0.88024,-0.201201 -1.79692,-0.307755 -2.6977,-0.245244 -1.25614,0.08717 -2.49766,0.421663 -3.67868,0.858358 -1.24744,0.461258 -3.54072,1.839338 -3.54072,1.839338 -1.46098,1.368774 -20.23641,19.531471 -30.49395,31.020631 z"
               style="fill:#f9f9f9;fill-opacity:1;stroke:none;stroke-width:0.0858358px;stroke-linecap:butt;stroke-linejoin:miter;stroke-opacity:1" />
          </g>
        </g>
        <g
           transform="matrix(1,0,0,-1,1.9371651,532.45121)"
           id="g1083">
          <g
             id="g1081">
            <path
               sodipodi:nodetypes="ssssccccsssccscsscscccccscccsccscsscscccsss"
               style="fill:#000000;fill-opacity:1;stroke:#000000;stroke-width:0.0858358px;stroke-linecap:butt;stroke-linejoin:miter;stroke-opacity:1"
               d="m -294.59861,79.408916 c -3.06849,-0.02074 -4.09241,0.391729 -7.02328,1.300613 -2.13046,0.660671 -4.09097,1.947482 -5.72267,3.468303 -10.86438,10.126105 -19.87147,21.224698 -30.42091,31.490678 -10.53153,10.24854 -19.83426,20.70183 -30.27406,31.28531 -1.42772,1.44737 -2.06905,3.92751 -1.5608,5.89601 0.48037,1.8605 2.35807,3.14522 3.98852,4.16203 8.23676,5.13677 19.64072,3.5029 27.74642,8.8441 0.95809,0.63133 2.01067,1.48002 2.25436,2.60123 0.21756,1.00094 -0.22084,2.15337 -0.86707,2.94809 -2.93685,3.61164 -8.57424,3.81575 -12.31241,6.58975 -0.65648,0.48715 -1.6536,0.92064 -1.73416,1.73415 -0.0616,0.62221 0.54862,1.17454 1.04043,1.56063 8.12661,6.37959 19.84624,6.05252 29.13371,10.57842 1.47066,0.71667 3.1415,1.32244 4.16187,2.60123 0.87794,1.1003 1.5773,2.59376 1.38728,3.98852 -0.24675,1.81122 -1.85364,3.19187 -3.12144,4.50872 -0.80182,0.83286 -2.1618,1.10067 -2.77457,2.08102 -0.8112,1.2978 -1.36144,3.06031 -0.86708,4.50873 0.42332,1.24027 1.74507,2.0814 2.94809,2.60122 2.29156,0.99019 5.03235,0.099 7.45682,0.69373 1.33445,0.32732 2.84232,0.59018 3.815,1.56064 2.25697,2.25181 1.38939,6.58776 3.64182,8.8441 1.28171,1.28394 3.22273,1.911 5.02894,2.08102 6.23035,0.58644 12.95122,-0.70575 18.38194,-3.81517 1.42063,-0.8134 3.30662,-2.00468 3.29495,-3.64165 -0.0163,-2.29035 -3.90661,-2.87385 -4.68224,-5.02894 -0.33335,-0.92621 -0.27791,-2.07323 0.17335,-2.94809 1.73399,-3.36171 5.49368,-5.35455 8.84427,-7.10996 4.32569,-2.26626 9.79421,-1.76097 14.04656,-4.16203 1.56768,-0.88517 3.03047,-2.1174 3.98852,-3.64164 0.6423,-1.02191 1.36616,-2.30609 1.04042,-3.46831 -0.41975,-1.49765 -2.18978,-2.23569 -3.4683,-3.12143 -2.78406,-1.92875 -6.58905,-2.32135 -9.01746,-4.68225 -0.85343,-0.82971 -1.67002,-1.8676 -1.73415,-3.12144 -0.0641,-1.25384 1.56064,-3.64165 1.56064,-3.64165 0,0 20.86476,-6.30758 30.86786,-10.57842 3.59032,-1.53289 7.49527,-2.7729 10.40474,-5.37581 1.86396,-1.66756 3.76461,-3.77363 4.16203,-6.24288 0.46686,-2.90064 -2.34104,-8.49741 -2.34104,-8.49741 0,0 -19.00367,-19.24584 -29.70774,-30.14663 -10.70405,-10.9008 -23.53075,-25.028278 -34.62904,-34.536846 -1.25414,-1.074497 -5.45867,-2.156527 -7.11012,-2.167688 z"
               id="path1077"
               inkscape:connector-curvature="0" />
            <path
               style="fill:#f9f9f9;fill-opacity:1;stroke:none;stroke-width:0.0858358px;stroke-linecap:butt;stroke-linejoin:miter;stroke-opacity:1"
               d="m -334.62442,117.82018 c -0.51829,0.58052 -0.64532,1.42172 -0.86707,2.16768 -0.16798,0.56506 -0.46921,1.15749 -0.34683,1.73414 0.15065,0.70993 0.72611,1.76227 1.25725,1.7775 6.71889,0.19274 18.11754,0.18777 20.76639,0.21677 l 7.80365,-16.7345 4.85561,19.42242 14.65353,-9.36438 9.08781,4.8298 2.03379,-13.19989 10.93573,9.16078 c 0,0 0.82328,-2.03329 0.87196,-3.08044 0.0589,-1.26771 -0.27692,-1.74944 -0.98098,-3.67868 -5.854,-6.12102 -18.38024,-18.822036 -24.75489,-24.884944 -1.26526,-1.203386 -3.20266,-1.450247 -4.9049,-1.839339 -0.88024,-0.201201 -1.79692,-0.307755 -2.6977,-0.245244 -1.25614,0.08717 -2.49766,0.421663 -3.67868,0.858358 -1.24744,0.461258 -3.54072,1.839338 -3.54072,1.839338 -1.46098,1.368774 -20.23641,19.531471 -30.49395,31.020631 z"
               id="path1079"
               inkscape:connector-curvature="0"
               sodipodi:nodetypes="sssscccccccscsssscs" />
          </g>
        </g>
      </g>
    </g>
  </g>
</svg>
