<?xml version="1.0" encoding="UTF-8" standalone="no"?>
<!-- Created with Inkscape (http://www.inkscape.org/) -->

<svg
   xmlns:dc="http://purl.org/dc/elements/1.1/"
   xmlns:cc="http://creativecommons.org/ns#"
   xmlns:rdf="http://www.w3.org/1999/02/22-rdf-syntax-ns#"
   xmlns:svg="http://www.w3.org/2000/svg"
   xmlns="http://www.w3.org/2000/svg"
   xmlns:sodipodi="http://sodipodi.sourceforge.net/DTD/sodipodi-0.dtd"
   xmlns:inkscape="http://www.inkscape.org/namespaces/inkscape"
   width="64.280067mm"
   height="102.87187mm"
   viewBox="0 0 64.280066 102.87187"
   version="1.1"
   id="svg5814"
   inkscape:version="0.92.3 (2405546, 2018-03-11)"
   sodipodi:docname="jquery.svg">
  <defs
     id="defs5808" />
  <sodipodi:namedview
     id="base"
     pagecolor="#ffffff"
     bordercolor="#666666"
     borderopacity="1.0"
     inkscape:pageopacity="0.0"
     inkscape:pageshadow="2"
     inkscape:zoom="0.7"
     inkscape:cx="-269.45617"
     inkscape:cy="72.02999"
     inkscape:document-units="mm"
     inkscape:current-layer="layer1"
     showgrid="false"
     inkscape:window-width="1920"
     inkscape:window-height="1017"
     inkscape:window-x="-8"
     inkscape:window-y="-8"
     inkscape:window-maximized="1" />
  <metadata
     id="metadata5811">
    <rdf:RDF>
      <cc:Work
         rdf:about="">
        <dc:format>image/svg+xml</dc:format>
        <dc:type
           rdf:resource="http://purl.org/dc/dcmitype/StillImage" />
        <dc:title />
      </cc:Work>
    </rdf:RDF>
  </metadata>
  <g
     inkscape:label="Camada 1"
     inkscape:groupmode="layer"
     id="layer1"
     transform="translate(-22.960527,-134.45622)">
    <g
       id="g938"
       transform="matrix(1.5717092,0,0,1.5717092,172.22268,-146.96996)">
      <path
         sodipodi:nodetypes="ccccccc"
         inkscape:connector-curvature="0"
         id="path6211"
         d="m -74.564491,206.71344 c -0.306725,0.6029 -0.606403,1.20934 -1.023055,1.7573 -0.343392,0.53282 -0.35077,0.8288 -0.356639,1.1387 0,0.76647 0.621321,1.38779 1.387782,1.38779 0.766441,0 1.38779,-0.62132 1.387756,-1.38779 0.0061,-0.26934 0.0061,-0.65842 -0.347679,-1.12588 -0.618725,-0.77515 -0.749352,-1.16885 -1.048165,-1.77012 z"
         style="opacity:1;fill:#aa87de;fill-opacity:1;fill-rule:nonzero;stroke:none;stroke-width:0.07385885;stroke-linecap:butt;stroke-linejoin:miter;stroke-miterlimit:4;stroke-dasharray:none;stroke-dashoffset:0;stroke-opacity:1;paint-order:markers stroke fill" />
      <path
         style="opacity:1;fill:#ff80e5;fill-opacity:1;fill-rule:nonzero;stroke:none;stroke-width:0.07385885;stroke-linecap:butt;stroke-linejoin:miter;stroke-miterlimit:4;stroke-dasharray:none;stroke-dashoffset:0;stroke-opacity:1;paint-order:markers stroke fill"
         d="m -74.564491,216.11213 c -0.306725,0.60291 -0.606403,1.20934 -1.023055,1.7573 -0.343392,0.53282 -0.35077,0.8288 -0.356639,1.13871 0,0.76646 0.621321,1.38778 1.387782,1.38778 0.766441,0 1.38779,-0.62132 1.387756,-1.38778 0.0061,-0.26935 0.0061,-0.65842 -0.347679,-1.12589 -0.618725,-0.77514 -0.749352,-1.16885 -1.048165,-1.77012 z"
         id="path6155"
         inkscape:connector-curvature="0"
         sodipodi:nodetypes="ccccccc" />
      <path
         id="path5994"
         d="m -74.519296,179.05741 a 5.6749563,1.0285393 0 0 0 -5.674656,1.02848 5.6749563,1.0285393 0 0 0 0.523503,0.42845 v 23.77114 a 20.448852,20.448852 0 0 0 -15.297598,19.77533 20.448852,20.448852 0 0 0 20.449102,20.44875 20.448852,20.448852 0 0 0 20.448755,-20.44875 20.448852,20.448852 0 0 0 -15.297598,-19.76345 v -23.78267 a 5.6749563,1.0285393 0 0 0 0.523501,-0.4288 5.6749563,1.0285393 0 0 0 -5.675009,-1.02848 z"
         style="opacity:1;fill:#ececec;fill-opacity:1;fill-rule:nonzero;stroke:none;stroke-width:0.44971371;stroke-linecap:butt;stroke-linejoin:miter;stroke-miterlimit:4;stroke-dasharray:none;stroke-dashoffset:0;stroke-opacity:1;paint-order:stroke fill markers"
         inkscape:connector-curvature="0" />
      <path
         id="path6002"
         d="m -92.59621,222.39944 a 18.212258,18.212258 0 0 0 -0.135245,2.10869 18.212258,18.212258 0 0 0 18.212159,18.21251 18.212258,18.212258 0 0 0 18.212507,-18.21251 18.212258,18.212258 0 0 0 -0.138038,-2.04648 18.083343,2.6025774 0 0 1 -18.06818,2.55845 18.083343,2.6025774 0 0 1 -18.083203,-2.60248 18.083343,2.6025774 0 0 1 0.0063,-0.0182 z"
         style="opacity:1;fill:#147fb2;fill-opacity:1;fill-rule:nonzero;stroke:none;stroke-width:0.65392047;stroke-linecap:butt;stroke-linejoin:miter;stroke-miterlimit:4;stroke-dasharray:none;stroke-dashoffset:0;stroke-opacity:1;paint-order:stroke fill markers"
         inkscape:connector-curvature="0" />
      <ellipse
         ry="2.6025774"
         rx="18.083344"
         cy="222.41765"
         cx="-74.512863"
         id="path6010"
         style="opacity:1;fill:#1412b2;fill-opacity:1;fill-rule:nonzero;stroke:none;stroke-width:0.4749383;stroke-linecap:butt;stroke-linejoin:miter;stroke-miterlimit:4;stroke-dasharray:none;stroke-dashoffset:0;stroke-opacity:1;paint-order:stroke fill markers" />
      <g
         id="g923"
         transform="matrix(0.25104325,0,0,0.25104325,-98.710958,190.2918)">
        <g
           style="fill:#146bb2;fill-opacity:1"
           transform="translate(15.43608,-7.079913)"
           id="g919">
          <path
             inkscape:connector-curvature="0"
             style="fill:#146bb2;fill-opacity:1;stroke:none;stroke-width:4.2651968;stroke-miterlimit:4;stroke-dasharray:none;stroke-opacity:1"
             d="m 66.515625,606.96484 a 46.214479,46.214479 0 0 0 -11.714844,30.68164 46.214479,46.214479 0 0 0 46.214839,46.21485 46.214479,46.214479 0 0 0 41.32032,-25.63867 46.214479,46.214479 0 0 1 -34.50196,15.53711 46.214479,46.214479 0 0 1 -46.214839,-46.21485 46.214479,46.214479 0 0 1 4.896484,-20.58008 z"
             transform="scale(0.26458333)"
             id="path913" />
          <path
             inkscape:connector-curvature="0"
             style="fill:#146bb2;fill-opacity:1;stroke:none;stroke-width:5.17948389;stroke-miterlimit:4;stroke-dasharray:none;stroke-opacity:1"
             d="m 88.240234,600.31445 a 33.587573,33.587573 0 0 0 -7.933593,21.67383 33.587573,33.587573 0 0 0 33.587889,33.58789 33.587573,33.587573 0 0 0 30.19922,-18.98242 33.587573,33.587573 0 0 1 -25.6543,11.91211 33.587573,33.587573 0 0 1 -33.585934,-33.58789 33.587573,33.587573 0 0 1 3.386718,-14.60352 z"
             transform="scale(0.26458333)"
             id="path915" />
          <path
             inkscape:connector-curvature="0"
             style="fill:#146bb2;fill-opacity:1;stroke:none;stroke-width:4.43229723;stroke-miterlimit:4;stroke-dasharray:none;stroke-opacity:1"
             d="m 107.60156,594.44141 a 21.465741,21.465741 0 0 0 -5.82812,14.66797 21.465741,21.465741 0 0 0 21.46484,21.46679 21.465741,21.465741 0 0 0 18.91992,-11.34375 21.465741,21.465741 0 0 1 -15.63672,6.79688 21.465741,21.465741 0 0 1 -21.46484,-21.46485 21.465741,21.465741 0 0 1 2.54492,-10.12304 z"
             transform="scale(0.26458333)"
             id="path917" />
        </g>
        <path
           sodipodi:nodetypes="ccsccsssccccccscccccccccccccccccssscsccccccccccccsccscscsscsssssscccccccccccccccccccscsccccssscccssssccccccccccc"
           inkscape:connector-curvature="0"
           id="path921"
           d="m 84.158422,147.10431 c -0.09991,0.002 -0.198056,0.007 -0.294039,0.015 -1.399545,0.115 -3.762195,0.57049 -5.048271,1.18701 -1.43492,0.68787 -2.861635,1.73457 -3.872114,2.93935 -1.085111,1.29377 -2.25516,4.50981 -2.25516,4.50981 -0.765408,1.47051 -0.947444,2.59685 -1.163754,5.10459 -0.14003,1.62341 0.05614,3.29119 0.625803,4.70876 0.514274,1.27973 0.948114,2.21542 2.54248,3.13263 1.30485,0.75065 2.737191,1.11414 4.276224,1.20251 4.257993,0.14825 8.650063,0.0284 13.029698,-0.0667 l 1.20251,-4.41006 -2.760557,-0.0625 1.424204,-3.34502 1.135846,-3.27422 c 0,0 0.401011,-2.40512 0.401011,-2.80602 0,-0.40091 -0.06666,-2.20504 -0.06666,-2.20504 l -0.601515,-1.60352 c 0,0 -0.878967,-2.04205 -1.799891,-2.83755 -0.934334,-0.8071 -3.411678,-1.63918 -3.411678,-1.63918 0,0 -1.865537,-0.5812 -3.364135,-0.54983 z m 72.777988,2.39985 -7.55923,10.48877 c 0,0 -0.41605,-2.4164 -0.6165,-2.41639 -0.20045,0 -5.34541,-0.0336 -5.34541,-0.0336 l 1.90428,7.11585 -0.6351,4.91133 4.97592,-0.0331 1.1343,-3.96875 12.0003,-16.06413 z m -34.44441,2.14095 c -0.88606,0.0145 -1.76917,0.10177 -2.62981,0.28526 -1.13281,0.24151 -2.23275,0.71079 -3.20756,1.33635 -0.83933,0.53861 -1.61493,1.09515 -2.19677,2.0314 -0.98245,1.58089 -1.51734,3.43771 -1.93373,5.59552 -0.23377,1.21146 -0.48007,4.68396 -0.48007,4.68396 -0.0671,0.92596 0.73448,2.63881 2.23862,3.40754 1.54363,0.78892 3.35673,0.7742 5.04465,0.91881 l 7.95146,-0.0667 1.06918,-4.14239 -9.75547,-0.40101 -1.13585,-1.00252 -0.33435,-0.86868 0.46767,-0.86868 11.5595,-0.0667 c 0,0 0.0648,-1.04415 0.0708,-1.19993 0.078,-2.03124 0.56594,-1.53912 0.60927,-4.16667 0.0214,-1.29845 -0.28302,-2.34879 -0.54622,-2.85202 -0.38693,-0.73979 -1.02026,-1.37653 -1.73737,-1.80403 -0.71481,-0.42613 -1.5796,-0.56624 -2.40553,-0.66817 -0.87337,-0.10779 -1.76237,-0.16595 -2.64842,-0.15142 z m -37.182153,0.51692 c 1.181788,0.35229 2.032272,1.35313 2.535896,2.563 0.125447,1.07688 -0.04346,2.81768 -0.310317,3.60532 -0.910978,2.68883 -1.910828,6.52145 -2.347891,6.73998 l -4.791157,0.12021 c 0,0 -1.342591,-0.41906 -1.821312,-0.73445 -0.641728,-0.42278 -0.967629,-1.04169 -1.157552,-1.70067 -0.240041,-0.83287 -0.217739,-1.72089 -0.127976,-2.583 0.134069,-1.28762 0.410958,-2.45225 0.850593,-3.642 0.388231,-1.05063 0.762389,-1.95541 1.559078,-2.7427 0.716415,-0.70796 1.532858,-1.30661 2.502564,-1.57887 0.617808,-0.17346 1.281549,-0.15949 1.935462,-0.17439 0.490926,-0.0112 0.725746,-0.006 1.172612,0.12757 z m 12.03485,-0.29832 c 0,0 -2.51129,8.59182 -2.539381,12.99559 -0.01624,2.5448 0.467673,3.02358 0.467673,3.02358 0.104611,0.40768 2.70379,2.10408 3.274218,1.82108 l 10.373523,-0.0501 3.85868,-17.72346 h -4.67723 l -3.32435,13.32993 -4.02559,-0.0336 -1.002523,-0.93534 v -1.20251 l 2.272213,-11.09183 z m -31.170707,0.0997 -0.868164,4.37699 4.977474,0.0331 0.93586,-4.41007 z m 67.51681,0.092 c 0,0 -3.68505,17.1982 -3.68505,17.57618 l 4.72478,-0.0946 c 0,0 2.92902,-12.56756 2.92902,-13.04003 0,-0.47247 10.77247,0 10.77247,0 0,0 -0.19904,-2.10165 -0.66146,-3.0241 -0.28019,-0.55893 -1.22835,-1.41748 -1.22835,-1.41748 z m -11.91252,3.92312 c 0.4004,-0.0381 0.48081,-0.0508 1.20251,0.12336 1.04433,0.25198 1.20046,0.39452 1.7426,1.50792 0.19469,0.39982 0.37317,0.76123 0.35037,1.13562 v 5.3e-4 c -2.29246,0 -4.57586,0.001 -6.86832,0.001 -0.022,-0.19937 0.16526,-0.69021 0.22813,-1.01176 0.0282,-0.14413 0.33253,-0.61034 0.78203,-0.98632 0.51668,-0.43217 1.14608,-0.56688 1.35492,-0.62523 0,0 0.7957,-0.10597 1.20776,-0.14518 z m -57.067767,1.51065 -2.207098,11.52229 c -0.546153,1.58488 -1.342464,2.70252 -2.42311,3.21841 l -1.795756,0.0946 -1.13378,4.58319 4.724776,0.047 1.322917,-0.23616 2.078942,-1.32292 1.181325,-2.22054 3.448883,-15.54427 z"
           style="fill:#231f20;fill-opacity:1;stroke:none;stroke-width:0.26458332px;stroke-linecap:butt;stroke-linejoin:miter;stroke-opacity:1" />
      </g>
      <path
         id="path6015"
         d="m -69.367788,183.23704 c -0.442593,6.79921 -3.448804,17.90463 -0.230653,26.82899 0,0 5.512977,6.87094 6.453968,11.02361 1.121978,4.95136 1.144355,10.71494 -1.277999,15.17668 -2.133618,3.92989 -6.000906,6.9615 -10.597609,8.22542 0.166962,0.008 0.334025,0.0139 0.501136,0.0179 a 20.448852,20.448852 0 0 0 13.15571,-4.79505 c 0.01183,-0.01 0.02353,-0.0201 0.0353,-0.03 a 20.448852,20.448852 0 0 0 1.45833,-1.35873 c 0.01197,-0.0122 0.02408,-0.0244 0.03598,-0.0367 a 20.448852,20.448852 0 0 0 1.327974,-1.51144 c 0.0027,-0.003 0.0054,-0.007 0.008,-0.01 a 20.448852,20.448852 0 0 0 4.375336,-11.2553 c 3.58e-4,-0.005 6.76e-4,-0.0108 0.0014,-0.0161 a 20.448852,20.448852 0 0 0 0.05106,-1.43561 20.448852,20.448852 0 0 0 -0.100648,-1.95772 c -0.0068,-0.0651 -0.01427,-0.12998 -0.0213,-0.195 a 20.448852,20.448852 0 0 0 -0.26525,-1.7428 c -0.02056,-0.10447 -0.04105,-0.20909 -0.06323,-0.31312 a 20.448852,20.448852 0 0 0 -0.409226,-1.59497 c -0.0491,-0.16415 -0.100243,-0.32761 -0.153417,-0.4903 a 20.448852,20.448852 0 0 0 -0.510226,-1.39193 c -0.07686,-0.18786 -0.156655,-0.37446 -0.239031,-0.55985 a 20.448852,20.448852 0 0 0 -0.591654,-1.22104 c -0.126779,-0.24089 -0.259272,-0.47862 -0.395593,-0.71431 a 20.448852,20.448852 0 0 0 -0.577324,-0.93867 c -0.179108,-0.27444 -0.363639,-0.5456 -0.556002,-0.81147 a 20.448852,20.448852 0 0 0 -0.58291,-0.76464 c -0.260435,-0.32645 -0.531277,-0.64526 -0.812163,-0.95613 a 20.448852,20.448852 0 0 0 -0.472483,-0.50604 c -0.321481,-0.33241 -0.653904,-0.65551 -0.999129,-0.96697 a 20.448852,20.448852 0 0 0 -0.334438,-0.29321 c -0.515581,-0.44519 -1.054501,-0.86796 -1.618388,-1.26367 v -3.6e-4 a 20.448852,20.448852 0 0 0 -6.59515,-3.08126 z"
         style="fill:#ffffff;fill-opacity:0.39215686;stroke:none;stroke-width:0.17892745px;stroke-linecap:butt;stroke-linejoin:miter;stroke-opacity:1"
         inkscape:connector-curvature="0" />
      <path
         sodipodi:nodetypes="cscccccscaccac"
         inkscape:connector-curvature="0"
         id="path6023"
         d="m -70.30157,180.767 c 0,0 -5.105157,0.40057 -5.810842,0.41517 -1.258294,0.026 -2.992613,-0.37052 -3.558037,-0.66783 0,0 0,0.39506 0,0.51477 v 23.25637 c -9.004337,2.34386 -15.291198,10.47093 -15.297598,19.77533 0.01138,8.74951 5.588063,16.52235 13.872818,19.33605 6.045602,-2.45771 10.562743,-6.36809 10.090632,-11.60378 -0.477907,-5.30001 -8.701863,-14.56986 -9.265889,-18.72338 -0.179093,-1.75619 0.599103,-3.68071 1.789271,-4.98445 0.918803,-1.00648 3.706461,-1.72533 3.706461,-1.72533 -3.024411,-4.54224 -3.65378,-8.52997 -3.897966,-13.93083 -0.101405,-2.43378 -0.03243,-5.78262 1.569313,-7.96279 1.528095,-2.07991 2.921734,-3.34634 6.801837,-3.6993 z"
         style="fill:#000000;fill-opacity:0.1372549;stroke:none;stroke-width:0.17892745px;stroke-linecap:butt;stroke-linejoin:miter;stroke-opacity:1" />
    </g>
  </g>
</svg>
