<?xml version="1.0" encoding="UTF-8" standalone="no"?>
<!-- Created with Inkscape (http://www.inkscape.org/) -->

<svg
   xmlns:dc="http://purl.org/dc/elements/1.1/"
   xmlns:cc="http://creativecommons.org/ns#"
   xmlns:rdf="http://www.w3.org/1999/02/22-rdf-syntax-ns#"
   xmlns:svg="http://www.w3.org/2000/svg"
   xmlns="http://www.w3.org/2000/svg"
   xmlns:sodipodi="http://sodipodi.sourceforge.net/DTD/sodipodi-0.dtd"
   xmlns:inkscape="http://www.inkscape.org/namespaces/inkscape"
   width="156.91377mm"
   height="35.256199mm"
   viewBox="0 0 156.91377 35.256199"
   version="1.1"
   id="svg5814"
   inkscape:version="0.92.3 (2405546, 2018-03-11)"
   sodipodi:docname="jquery.svg">
  <defs
     id="defs5808" />
  <sodipodi:namedview
     id="base"
     pagecolor="#ffffff"
     bordercolor="#666666"
     borderopacity="1.0"
     inkscape:pageopacity="0.0"
     inkscape:pageshadow="2"
     inkscape:zoom="0.49497475"
     inkscape:cx="348.02047"
     inkscape:cy="52.350368"
     inkscape:document-units="mm"
     inkscape:current-layer="layer1"
     showgrid="false"
     inkscape:window-width="1366"
     inkscape:window-height="705"
     inkscape:window-x="-8"
     inkscape:window-y="-8"
     inkscape:window-maximized="1" />
  <metadata
     id="metadata5811">
    <rdf:RDF>
      <cc:Work
         rdf:about="">
        <dc:format>image/svg+xml</dc:format>
        <dc:type
           rdf:resource="http://purl.org/dc/dcmitype/StillImage" />
        <dc:title></dc:title>
      </cc:Work>
    </rdf:RDF>
  </metadata>
  <g
     inkscape:label="Camada 1"
     inkscape:groupmode="layer"
     id="layer1"
     transform="translate(-29.935453,-141.69847)">
    <g
       id="g6422"
       transform="matrix(1.1810503,0,0,1.1810503,-5.4198232,-32.037699)">
      <g
         style="fill:#146bb2;fill-opacity:1"
         transform="translate(15.43608,-7.079913)"
         id="g6388">
        <path
           inkscape:connector-curvature="0"
           style="fill:#146bb2;fill-opacity:1;stroke:none;stroke-width:4.2651968;stroke-miterlimit:4;stroke-dasharray:none;stroke-opacity:1"
           d="m 66.515625,606.96484 a 46.214479,46.214479 0 0 0 -11.714844,30.68164 46.214479,46.214479 0 0 0 46.214839,46.21485 46.214479,46.214479 0 0 0 41.32032,-25.63867 46.214479,46.214479 0 0 1 -34.50196,15.53711 46.214479,46.214479 0 0 1 -46.214839,-46.21485 46.214479,46.214479 0 0 1 4.896484,-20.58008 z"
           transform="scale(0.26458333)"
           id="path5827" />
        <path
           inkscape:connector-curvature="0"
           style="fill:#146bb2;fill-opacity:1;stroke:none;stroke-width:5.17948389;stroke-miterlimit:4;stroke-dasharray:none;stroke-opacity:1"
           d="m 88.240234,600.31445 a 33.587573,33.587573 0 0 0 -7.933593,21.67383 33.587573,33.587573 0 0 0 33.587889,33.58789 33.587573,33.587573 0 0 0 30.19922,-18.98242 33.587573,33.587573 0 0 1 -25.6543,11.91211 33.587573,33.587573 0 0 1 -33.585934,-33.58789 33.587573,33.587573 0 0 1 3.386718,-14.60352 z"
           transform="scale(0.26458333)"
           id="path6375" />
        <path
           inkscape:connector-curvature="0"
           style="fill:#146bb2;fill-opacity:1;stroke:none;stroke-width:4.43229723;stroke-miterlimit:4;stroke-dasharray:none;stroke-opacity:1"
           d="m 107.60156,594.44141 a 21.465741,21.465741 0 0 0 -5.82812,14.66797 21.465741,21.465741 0 0 0 21.46484,21.46679 21.465741,21.465741 0 0 0 18.91992,-11.34375 21.465741,21.465741 0 0 1 -15.63672,6.79688 21.465741,21.465741 0 0 1 -21.46484,-21.46485 21.465741,21.465741 0 0 1 2.54492,-10.12304 z"
           transform="scale(0.26458333)"
           id="path6380" />
      </g>
      <path
         sodipodi:nodetypes="ccsccsssccccccscccccccccccccccccssscsccccccccccccsccscscsscsssssscccccccccccccccccccscsccccssscccssssccccccccccc"
         inkscape:connector-curvature="0"
         id="path6390"
         d="m 84.158422,147.10431 c -0.09991,0.002 -0.198056,0.007 -0.294039,0.015 -1.399545,0.115 -3.762195,0.57049 -5.048271,1.18701 -1.43492,0.68787 -2.861635,1.73457 -3.872114,2.93935 -1.085111,1.29377 -2.25516,4.50981 -2.25516,4.50981 -0.765408,1.47051 -0.947444,2.59685 -1.163754,5.10459 -0.14003,1.62341 0.05614,3.29119 0.625803,4.70876 0.514274,1.27973 0.948114,2.21542 2.54248,3.13263 1.30485,0.75065 2.737191,1.11414 4.276224,1.20251 4.257993,0.14825 8.650063,0.0284 13.029698,-0.0667 l 1.20251,-4.41006 -2.760557,-0.0625 1.424204,-3.34502 1.135846,-3.27422 c 0,0 0.401011,-2.40512 0.401011,-2.80602 0,-0.40091 -0.06666,-2.20504 -0.06666,-2.20504 l -0.601515,-1.60352 c 0,0 -0.878967,-2.04205 -1.799891,-2.83755 -0.934334,-0.8071 -3.411678,-1.63918 -3.411678,-1.63918 0,0 -1.865537,-0.5812 -3.364135,-0.54983 z m 72.777988,2.39985 -7.55923,10.48877 c 0,0 -0.41605,-2.4164 -0.6165,-2.41639 -0.20045,0 -5.34541,-0.0336 -5.34541,-0.0336 l 1.90428,7.11585 -0.6351,4.91133 4.97592,-0.0331 1.1343,-3.96875 12.0003,-16.06413 z m -34.44441,2.14095 c -0.88606,0.0145 -1.76917,0.10177 -2.62981,0.28526 -1.13281,0.24151 -2.23275,0.71079 -3.20756,1.33635 -0.83933,0.53861 -1.61493,1.09515 -2.19677,2.0314 -0.98245,1.58089 -1.51734,3.43771 -1.93373,5.59552 -0.23377,1.21146 -0.48007,4.68396 -0.48007,4.68396 -0.0671,0.92596 0.73448,2.63881 2.23862,3.40754 1.54363,0.78892 3.35673,0.7742 5.04465,0.91881 l 7.95146,-0.0667 1.06918,-4.14239 -9.75547,-0.40101 -1.13585,-1.00252 -0.33435,-0.86868 0.46767,-0.86868 11.5595,-0.0667 c 0,0 0.0648,-1.04415 0.0708,-1.19993 0.078,-2.03124 0.56594,-1.53912 0.60927,-4.16667 0.0214,-1.29845 -0.28302,-2.34879 -0.54622,-2.85202 -0.38693,-0.73979 -1.02026,-1.37653 -1.73737,-1.80403 -0.71481,-0.42613 -1.5796,-0.56624 -2.40553,-0.66817 -0.87337,-0.10779 -1.76237,-0.16595 -2.64842,-0.15142 z m -37.182153,0.51692 c 1.181788,0.35229 2.032272,1.35313 2.535896,2.563 0.125447,1.07688 -0.04346,2.81768 -0.310317,3.60532 -0.910978,2.68883 -1.910828,6.52145 -2.347891,6.73998 l -4.791157,0.12021 c 0,0 -1.342591,-0.41906 -1.821312,-0.73445 -0.641728,-0.42278 -0.967629,-1.04169 -1.157552,-1.70067 -0.240041,-0.83287 -0.217739,-1.72089 -0.127976,-2.583 0.134069,-1.28762 0.410958,-2.45225 0.850593,-3.642 0.388231,-1.05063 0.762389,-1.95541 1.559078,-2.7427 0.716415,-0.70796 1.532858,-1.30661 2.502564,-1.57887 0.617808,-0.17346 1.281549,-0.15949 1.935462,-0.17439 0.490926,-0.0112 0.725746,-0.006 1.172612,0.12757 z m 12.03485,-0.29832 c 0,0 -2.51129,8.59182 -2.539381,12.99559 -0.01624,2.5448 0.467673,3.02358 0.467673,3.02358 0.104611,0.40768 2.70379,2.10408 3.274218,1.82108 l 10.373523,-0.0501 3.85868,-17.72346 h -4.67723 l -3.32435,13.32993 -4.02559,-0.0336 -1.002523,-0.93534 v -1.20251 l 2.272213,-11.09183 z m -31.170707,0.0997 -0.868164,4.37699 4.977474,0.0331 0.93586,-4.41007 z m 67.51681,0.092 c 0,0 -3.68505,17.1982 -3.68505,17.57618 l 4.72478,-0.0946 c 0,0 2.92902,-12.56756 2.92902,-13.04003 0,-0.47247 10.77247,0 10.77247,0 0,0 -0.19904,-2.10165 -0.66146,-3.0241 -0.28019,-0.55893 -1.22835,-1.41748 -1.22835,-1.41748 z m -11.91252,3.92312 c 0.4004,-0.0381 0.48081,-0.0508 1.20251,0.12336 1.04433,0.25198 1.20046,0.39452 1.7426,1.50792 0.19469,0.39982 0.37317,0.76123 0.35037,1.13562 v 5.3e-4 c -2.29246,0 -4.57586,0.001 -6.86832,0.001 -0.022,-0.19937 0.16526,-0.69021 0.22813,-1.01176 0.0282,-0.14413 0.33253,-0.61034 0.78203,-0.98632 0.51668,-0.43217 1.14608,-0.56688 1.35492,-0.62523 0,0 0.7957,-0.10597 1.20776,-0.14518 z m -57.067767,1.51065 -2.207098,11.52229 c -0.546153,1.58488 -1.342464,2.70252 -2.42311,3.21841 l -1.795756,0.0946 -1.13378,4.58319 4.724776,0.047 1.322917,-0.23616 2.078942,-1.32292 1.181325,-2.22054 3.448883,-15.54427 z"
         style="fill:#231f20;fill-opacity:1;stroke:none;stroke-width:0.26458332px;stroke-linecap:butt;stroke-linejoin:miter;stroke-opacity:1" />
    </g>
  </g>
</svg>
