<?xml version="1.0" encoding="UTF-8" standalone="no"?>
<!-- Created with Inkscape (http://www.inkscape.org/) -->

<svg
   xmlns:dc="http://purl.org/dc/elements/1.1/"
   xmlns:cc="http://creativecommons.org/ns#"
   xmlns:rdf="http://www.w3.org/1999/02/22-rdf-syntax-ns#"
   xmlns:svg="http://www.w3.org/2000/svg"
   xmlns="http://www.w3.org/2000/svg"
   xmlns:sodipodi="http://sodipodi.sourceforge.net/DTD/sodipodi-0.dtd"
   xmlns:inkscape="http://www.inkscape.org/namespaces/inkscape"
   width="129.31471mm"
   height="193.429mm"
   viewBox="0 0 129.31471 193.429"
   version="1.1"
   id="svg2102"
   inkscape:version="0.92.3 (2405546, 2018-03-11)"
   sodipodi:docname="processo.svg">
  <defs
     id="defs2096" />
  <sodipodi:namedview
     id="base"
     pagecolor="#ffffff"
     bordercolor="#666666"
     borderopacity="1.0"
     inkscape:pageopacity="0.0"
     inkscape:pageshadow="2"
     inkscape:zoom="0.35"
     inkscape:cx="212.94569"
     inkscape:cy="599.82084"
     inkscape:document-units="mm"
     inkscape:current-layer="layer1"
     showgrid="false"
     inkscape:window-width="1920"
     inkscape:window-height="1017"
     inkscape:window-x="-8"
     inkscape:window-y="-8"
     inkscape:window-maximized="1" />
  <metadata
     id="metadata2099">
    <rdf:RDF>
      <cc:Work
         rdf:about="">
        <dc:format>image/svg+xml</dc:format>
        <dc:type
           rdf:resource="http://purl.org/dc/dcmitype/StillImage" />
        <dc:title></dc:title>
      </cc:Work>
    </rdf:RDF>
  </metadata>
  <g
     inkscape:label="Camada 1"
     inkscape:groupmode="layer"
     id="layer1"
     transform="translate(82.800215,-114.10693)">
    <g
       transform="translate(255.60117,96.275264)"
       id="g907">
      <g
         id="g867"
         transform="translate(-376.08631)">
        <path
           style="opacity:1;fill:#e9ddaf;fill-opacity:1;fill-rule:nonzero;stroke:none;stroke-width:0.66499996;stroke-linecap:butt;stroke-linejoin:miter;stroke-miterlimit:4;stroke-dasharray:none;stroke-dashoffset:0;stroke-opacity:1;paint-order:stroke fill markers"
           d="M 37.685007,40.688518 C 37.598628,29.983385 106.11609,-4.2990395 149.13641,39.61944 c 28.13425,26.198131 -18.44702,109.0308 9.08716,151.27455 1.41511,2.1711 4.61235,3.42618 8.77607,3.96829 C 154.91039,210.52344 65.713047,223.81754 48.108519,190.89399 24.056162,145.91187 78.249412,36.991048 37.685007,40.688518 Z"
           id="path859"
           inkscape:connector-curvature="0"
           sodipodi:nodetypes="ccscsc" />
        <path
           style="fill:#000000;fill-opacity:0.19607843;stroke:none;stroke-width:0.99999994px;stroke-linecap:butt;stroke-linejoin:miter;stroke-opacity:1"
           d="M 363.18359,67.398438 C 245.85128,66.89114 142.22505,128.17939 142.43164,153.7832 c 153.31429,-13.97469 -51.510061,397.69392 39.39648,567.70508 66.5368,124.43547 403.65991,74.19179 449.35157,15 0,0 -143.32285,44.60299 -254.03711,3.88867 -80.62572,-29.64948 -141.2923,-62.77413 -160.71485,-128.57226 -27.58067,-93.43567 -34.65195,-157.59828 -12.14257,-297.85547 2.55148,-15.89841 13.52096,-131.38855 52.85742,-180 22.91843,-28.32229 80.37611,-53.448925 114.13086,-66.414064 -2.70292,-0.07775 -5.40025,-0.12509 -8.08985,-0.136718 z"
           transform="scale(0.26458333)"
           id="path861"
           inkscape:connector-curvature="0" />
        <path
           style="fill:#000000;fill-opacity:0.19607843;stroke:none;stroke-width:0.26458332px;stroke-linecap:butt;stroke-linejoin:miter;stroke-opacity:1"
           d="m 65.189745,42.692822 28.564818,-4.587274 c 1.324235,-0.212662 26.390997,-4.21814 28.857947,-3.82006 1.94789,0.314323 24.1039,3.221846 24.1039,3.221846 0,0 -15.49422,-1.964984 -22.7375,-1.779847 -15.26047,0.390055 -30.215433,4.447128 -45.401943,5.99769 -4.45091,0.454444 -13.387222,0.967645 -13.387222,0.967645 z"
           id="path863"
           inkscape:connector-curvature="0"
           sodipodi:nodetypes="csscssc" />
        <path
           sodipodi:nodetypes="csscssc"
           inkscape:connector-curvature="0"
           id="path865"
           d="m 73.127245,189.22793 28.564815,4.58727 c 1.32424,0.21266 26.391,4.21814 28.85795,3.82006 1.94789,-0.31432 24.1039,-3.22184 24.1039,-3.22184 0,0 -15.49422,1.96498 -22.7375,1.77984 -15.26047,-0.39005 -30.21543,-4.44713 -45.401943,-5.99769 -4.45091,-0.45444 -13.387222,-0.96764 -13.387222,-0.96764 z"
           style="fill:#000000;fill-opacity:0.19607843;stroke:none;stroke-width:0.26458332px;stroke-linecap:butt;stroke-linejoin:miter;stroke-opacity:1" />
      </g>
      <g
         transform="matrix(6.3700735,0,0,6.3700735,1240.5663,-651.73751)"
         id="text878"
         style="font-style:normal;font-variant:normal;font-weight:normal;font-stretch:normal;font-size:28.32382202px;line-height:1.25;font-family:sans-serif;-inkscape-font-specification:'sans-serif, Normal';font-variant-ligatures:normal;font-variant-caps:normal;font-variant-numeric:normal;font-feature-settings:normal;text-align:start;letter-spacing:0px;word-spacing:0px;writing-mode:lr-tb;text-anchor:start;fill:#008080;fill-opacity:1;stroke:none;stroke-width:0.26458332"
         aria-label="!">
        <path
           inkscape:connector-curvature="0"
           id="path880"
           style="fill:#008080;stroke-width:0.26458332"
           d="m -235.02373,109.63096 -0.35958,14.92256 h -2.3511 l -0.38724,-14.92256 z m -0.1383,20.59286 h -2.82132 v -2.91813 h 2.82132 z" />
      </g>
    </g>
  </g>
</svg>
